<svg width="14" height="17" viewBox="0 0 14 17" fill="none" xmlns="http://www.w3.org/2000/svg">
<path fill-rule="evenodd" clip-rule="evenodd" d="M11.7138 12.0482L11.8642 11.8926C14.3247 9.2674 14.2582 5.16334 11.7138 2.61927C9.11031 0.015746 4.88917 0.015746 2.28565 2.61927C-0.317872 5.22279 -0.317872 9.44393 2.28565 12.0474L6.37925 15.7529C6.76371 16.101 7.35043 16.0973 7.73056 15.7446L11.7138 12.0482ZM5.07523 8.44447C4.67827 7.75691 4.67827 6.9098 5.07523 6.22224C5.47219 5.53468 6.20581 5.11113 6.99974 5.11113C8.22704 5.11113 9.22197 6.10605 9.22197 7.33336C9.22197 8.56066 8.22704 9.55558 6.99974 9.55558C6.20581 9.55558 5.47219 9.13203 5.07523 8.44447Z" fill="#FF141E"/>
</svg>
