<svg width="17" height="20" viewBox="0 0 17 20" fill="none" xmlns="http://www.w3.org/2000/svg">
<path fill-rule="evenodd" clip-rule="evenodd" d="M14.392 14.3104L14.58 14.116C17.6557 10.8345 17.5725 5.70438 14.392 2.5243C11.1376 -0.730104 5.86122 -0.730104 2.60682 2.5243C-0.647584 5.7787 -0.647584 11.0551 2.60682 14.3095L7.89369 19.0952C8.27815 19.4432 8.86487 19.4395 9.24499 19.0868L14.392 14.3104ZM6.09379 9.8058C5.59759 8.94635 5.59759 7.88747 6.09379 7.02801C6.59 6.16856 7.50702 5.63912 8.49943 5.63912C10.0336 5.63912 11.2772 6.88278 11.2772 8.41691C11.2772 9.95104 10.0336 11.1947 8.49943 11.1947C7.50702 11.1947 6.59 10.6653 6.09379 9.8058Z" fill="#195396"/>
</svg>
