<svg width="522" height="346" viewBox="0 0 522 346" fill="none" xmlns="http://www.w3.org/2000/svg">
<g opacity="0.1">
<path d="M89.2374 83.7244L88.8839 83.3708L88.5303 83.7244L88.8839 84.0779L89.2374 83.7244ZM171.962 0.999967L172.315 0.646414L171.962 0.292861L171.608 0.646414L171.962 0.999967ZM261.028 255.515L260.674 255.868L261.028 256.222L261.381 255.868L261.028 255.515ZM343.752 172.79L344.106 173.144L344.459 172.79L344.106 172.437L343.752 172.79ZM1.00214 171.964L0.648586 171.61L0.295033 171.964L0.648586 172.317L1.00214 171.964ZM83.7266 89.2395L84.0801 88.886L83.7266 88.5324L83.373 88.886L83.7266 89.2395ZM172.792 343.754L172.439 344.108L172.792 344.461L173.146 344.108L172.792 343.754ZM255.517 261.03L255.87 261.383L256.224 261.03L255.87 260.676L255.517 261.03ZM89.591 84.0779L172.315 1.35352L171.608 0.646414L88.8839 83.3708L89.591 84.0779ZM261.381 255.161L89.591 83.3708L88.8839 84.0779L260.674 255.868L261.381 255.161ZM343.399 172.437L260.674 255.161L261.381 255.868L344.106 173.144L343.399 172.437ZM171.608 1.35352L343.399 173.144L344.106 172.437L172.315 0.646414L171.608 1.35352ZM1.35569 172.317L84.0801 89.5931L83.373 88.886L0.648586 171.61L1.35569 172.317ZM173.146 343.401L1.35569 171.61L0.648586 172.317L172.439 344.108L173.146 343.401ZM255.163 260.676L172.439 343.401L173.146 344.108L255.87 261.383L255.163 260.676ZM83.373 89.5931L255.163 261.383L255.87 260.676L84.0801 88.886L83.373 89.5931Z" fill="white"/>
<path d="M89.2374 83.7244L88.8839 83.3708L88.5303 83.7244L88.8839 84.0779L89.2374 83.7244ZM171.962 0.999967L172.315 0.646414L171.962 0.292861L171.608 0.646414L171.962 0.999967ZM261.028 255.515L260.674 255.868L261.028 256.222L261.381 255.868L261.028 255.515ZM343.752 172.79L344.106 173.144L344.459 172.79L344.106 172.437L343.752 172.79ZM1.00214 171.964L0.648586 171.61L0.295033 171.964L0.648586 172.317L1.00214 171.964ZM83.7266 89.2395L84.0801 88.886L83.7266 88.5324L83.373 88.886L83.7266 89.2395ZM172.792 343.754L172.439 344.108L172.792 344.461L173.146 344.108L172.792 343.754ZM255.517 261.03L255.87 261.383L256.224 261.03L255.87 260.676L255.517 261.03ZM89.591 84.0779L172.315 1.35352L171.608 0.646414L88.8839 83.3708L89.591 84.0779ZM261.381 255.161L89.591 83.3708L88.8839 84.0779L260.674 255.868L261.381 255.161ZM343.399 172.437L260.674 255.161L261.381 255.868L344.106 173.144L343.399 172.437ZM171.608 1.35352L343.399 173.144L344.106 172.437L172.315 0.646414L171.608 1.35352ZM1.35569 172.317L84.0801 89.5931L83.373 88.886L0.648586 171.61L1.35569 172.317ZM173.146 343.401L1.35569 171.61L0.648586 172.317L172.439 344.108L173.146 343.401ZM255.163 260.676L172.439 343.401L173.146 344.108L255.87 261.383L255.163 260.676ZM83.373 89.5931L255.163 261.383L255.87 260.676L84.0801 88.886L83.373 89.5931Z" fill="black" fill-opacity="0.2"/>
<path d="M266.49 84.6259L266.136 84.2724L265.783 84.6259L266.136 84.9795L266.49 84.6259ZM349.214 1.90149L349.568 1.54794L349.214 1.19438L348.861 1.54794L349.214 1.90149ZM438.28 256.416L437.927 256.77L438.28 257.123L438.634 256.77L438.28 256.416ZM521.005 173.692L521.358 174.045L521.712 173.692L521.358 173.338L521.005 173.692ZM178.254 172.866L177.9 172.512L177.547 172.866L177.9 173.219L178.254 172.866ZM260.978 90.1412L261.332 89.7877L260.978 89.4341L260.625 89.7877L260.978 90.1412ZM350.044 344.656L349.69 345.01L350.044 345.363L350.398 345.01L350.044 344.656ZM432.768 261.932L433.122 262.285L433.475 261.932L433.122 261.578L432.768 261.932ZM266.844 84.9795L349.568 2.25504L348.861 1.54794L266.136 84.2724L266.844 84.9795ZM438.634 256.063L266.844 84.2724L266.136 84.9795L437.927 256.77L438.634 256.063ZM520.651 173.338L437.927 256.063L438.634 256.77L521.358 174.045L520.651 173.338ZM348.861 2.25504L520.651 174.045L521.358 173.338L349.568 1.54794L348.861 2.25504ZM178.607 173.219L261.332 90.4948L260.625 89.7877L177.9 172.512L178.607 173.219ZM350.398 344.302L178.607 172.512L177.9 173.219L349.69 345.01L350.398 344.302ZM432.415 261.578L349.69 344.302L350.398 345.01L433.122 262.285L432.415 261.578ZM260.625 90.4948L432.415 262.285L433.122 261.578L261.332 89.7877L260.625 90.4948Z" fill="white"/>
<path d="M266.49 84.6259L266.136 84.2724L265.783 84.6259L266.136 84.9795L266.49 84.6259ZM349.214 1.90149L349.568 1.54794L349.214 1.19438L348.861 1.54794L349.214 1.90149ZM438.28 256.416L437.927 256.77L438.28 257.123L438.634 256.77L438.28 256.416ZM521.005 173.692L521.358 174.045L521.712 173.692L521.358 173.338L521.005 173.692ZM178.254 172.866L177.9 172.512L177.547 172.866L177.9 173.219L178.254 172.866ZM260.978 90.1412L261.332 89.7877L260.978 89.4341L260.625 89.7877L260.978 90.1412ZM350.044 344.656L349.69 345.01L350.044 345.363L350.398 345.01L350.044 344.656ZM432.768 261.932L433.122 262.285L433.475 261.932L433.122 261.578L432.768 261.932ZM266.844 84.9795L349.568 2.25504L348.861 1.54794L266.136 84.2724L266.844 84.9795ZM438.634 256.063L266.844 84.2724L266.136 84.9795L437.927 256.77L438.634 256.063ZM520.651 173.338L437.927 256.063L438.634 256.77L521.358 174.045L520.651 173.338ZM348.861 2.25504L520.651 174.045L521.358 173.338L349.568 1.54794L348.861 2.25504ZM178.607 173.219L261.332 90.4948L260.625 89.7877L177.9 172.512L178.607 173.219ZM350.398 344.302L178.607 172.512L177.9 173.219L349.69 345.01L350.398 344.302ZM432.415 261.578L349.69 344.302L350.398 345.01L433.122 262.285L432.415 261.578ZM260.625 90.4948L432.415 262.285L433.122 261.578L261.332 89.7877L260.625 90.4948Z" fill="black" fill-opacity="0.2"/>
<path fill-rule="evenodd" clip-rule="evenodd" d="M178.381 173.164L261.013 90.1325L343.646 173.164L261.013 256.196L178.381 173.164Z" stroke="white"/>
<path fill-rule="evenodd" clip-rule="evenodd" d="M178.381 173.164L261.013 90.1325L343.646 173.164L261.013 256.196L178.381 173.164Z" stroke="black" stroke-opacity="0.2"/>
</g>
</svg>
