<svg width="22" height="22" viewBox="0 0 22 22" fill="none" xmlns="http://www.w3.org/2000/svg">
<path d="M8.37565 1.125C8.75603 1.12489 9.10623 1.33214 9.28919 1.66563L9.34232 1.78021L11.4257 6.98854C11.598 7.41899 11.4651 7.91156 11.0996 8.19688L10.9954 8.26771L9.25169 9.31354L9.31732 9.42083C10.1473 10.7385 11.2621 11.8534 12.5798 12.6833L12.6861 12.7479L13.7329 11.0063C13.9713 10.6084 14.4439 10.416 14.8923 10.5344L15.0121 10.575L20.2204 12.6583C20.5737 12.7993 20.822 13.1215 20.8684 13.499L20.8757 13.625V17.7917C20.8757 19.5177 19.4767 20.9167 17.6882 20.9146C8.75169 20.3719 1.62773 13.2479 1.08398 4.25C1.08389 2.59525 2.37375 1.22729 4.02565 1.13021L4.20898 1.125H8.37565V1.125Z" fill="#195396" stroke="#E8EDF4" stroke-width="1.83333" stroke-linecap="round" stroke-linejoin="round"/>
</svg>
