<svg width="152" height="71" viewBox="0 0 152 71" fill="none" xmlns="http://www.w3.org/2000/svg">
<g opacity="0.5">
<path fill-rule="evenodd" clip-rule="evenodd" d="M66.0957 0.985327L56.0297 11.0513L76.9334 31.9549L86.9993 21.8889L66.0957 0.985327ZM55.3593 11.7224L45.2933 21.7884L66.1969 42.692L76.2629 32.626L55.3593 11.7224Z" fill="white"/>
<path fill-rule="evenodd" clip-rule="evenodd" d="M86.6895 -2.44863e-05L76.6235 10.066L97.5271 30.9696L107.593 20.9036L86.6895 -2.44863e-05ZM75.953 10.7371L65.887 20.8031L86.7907 41.7067L96.8567 31.6407L75.953 10.7371Z" fill="white"/>
<path fill-rule="evenodd" clip-rule="evenodd" d="M66.8767 21.9346L76.9315 11.8312L86.9863 21.9346L76.9315 32.038L66.8767 21.9346Z" fill="#195396"/>
<path fill-rule="evenodd" clip-rule="evenodd" d="M11.3048 64.1907L7.65915 54.0264L6.81341 54.151L2.61757 64.2905C2.49714 64.5841 2.38766 64.8002 2.28913 64.9387C2.1906 65.0772 2.03733 65.1798 1.82931 65.2462L1 65.5039L1.04106 65.8613C1.64867 65.8446 2.19881 65.8363 2.69147 65.8363C3.18413 65.8363 3.81912 65.8446 4.59643 65.8613L4.58001 65.4873L3.81638 65.2629C3.71238 65.2296 3.63437 65.1894 3.58237 65.1424C3.53037 65.0953 3.50436 65.0246 3.50436 64.9304C3.50436 64.8251 3.53721 64.6811 3.6029 64.4982C3.66859 64.3154 3.75891 64.0688 3.87386 63.7586L4.73602 61.5395H8.69374L9.46557 63.7669C9.56958 64.0661 9.65032 64.3057 9.7078 64.4858C9.76528 64.6659 9.79402 64.8113 9.79402 64.9221C9.79402 65.0218 9.77075 65.0953 9.72422 65.1424C9.67769 65.1894 9.59969 65.2324 9.49021 65.2712L8.71016 65.5039L8.743 65.8613C9.59148 65.8446 10.3277 65.8363 10.9518 65.8363C11.5649 65.8363 12.23 65.8446 12.9471 65.8613L12.9306 65.5039L12.1588 65.2712C11.9508 65.2047 11.7907 65.1036 11.6784 64.9678C11.5662 64.8321 11.4417 64.573 11.3048 64.1907ZM8.42247 60.7832H5.03952L6.82132 56.2038L8.42247 60.7832Z" fill="white"/>
<path d="M7.65915 54.0264L7.80034 53.9757L7.75885 53.86L7.63727 53.878L7.65915 54.0264ZM11.3048 64.1907L11.4461 64.1402L11.446 64.1401L11.3048 64.1907ZM6.81341 54.151L6.79154 54.0026L6.70735 54.015L6.67481 54.0937L6.81341 54.151ZM2.61757 64.2905L2.47897 64.2331L2.47879 64.2336L2.61757 64.2905ZM2.28913 64.9387L2.41136 65.0257L2.41136 65.0257L2.28913 64.9387ZM1.82931 65.2462L1.87382 65.3895L1.87498 65.3891L1.82931 65.2462ZM1 65.5039L0.955498 65.3606L0.836794 65.3975L0.85098 65.521L1 65.5039ZM1.04106 65.8613L0.892035 65.8784L0.907726 66.015L1.04516 66.0112L1.04106 65.8613ZM4.59643 65.8613L4.59323 66.0112L4.75331 66.0146L4.74629 65.8547L4.59643 65.8613ZM4.58001 65.4873L4.72987 65.4807L4.72516 65.3736L4.6223 65.3433L4.58001 65.4873ZM3.81638 65.2629L3.7707 65.4058L3.77409 65.4068L3.81638 65.2629ZM3.58237 65.1424L3.48168 65.2535L3.48168 65.2535L3.58237 65.1424ZM3.6029 64.4982L3.74406 64.549L3.6029 64.4982ZM3.87386 63.7586L3.73403 63.7042L3.7332 63.7065L3.87386 63.7586ZM4.73602 61.5395V61.3895H4.63337L4.5962 61.4852L4.73602 61.5395ZM8.69374 61.5395L8.83547 61.4904L8.80051 61.3895H8.69374V61.5395ZM9.46557 63.7669L9.32384 63.816L9.32389 63.8161L9.46557 63.7669ZM9.7078 64.4858L9.5649 64.5314L9.5649 64.5314L9.7078 64.4858ZM9.72422 65.1424L9.61752 65.0369L9.72422 65.1424ZM9.49021 65.2712L9.53314 65.4151L9.54029 65.4126L9.49021 65.2712ZM8.71016 65.5039L8.66728 65.3601L8.54954 65.3953L8.56079 65.5176L8.71016 65.5039ZM8.743 65.8613L8.59363 65.875L8.6064 66.014L8.74594 66.0112L8.743 65.8613ZM12.9471 65.8613L12.9436 66.0112L13.1043 66.0149L13.0969 65.8544L12.9471 65.8613ZM12.9306 65.5039L13.0805 65.497L13.0756 65.3909L12.9739 65.3603L12.9306 65.5039ZM12.1588 65.2712L12.1131 65.4141L12.1155 65.4148L12.1588 65.2712ZM11.6784 64.9678L11.5628 65.0634L11.5628 65.0634L11.6784 64.9678ZM5.03952 60.7832L4.89973 60.7288L4.8202 60.9332H5.03952V60.7832ZM8.42247 60.7832V60.9332H8.63382L8.56406 60.7337L8.42247 60.7832ZM6.82132 56.2038L6.96291 56.1543L6.82883 55.7708L6.68153 56.1494L6.82132 56.2038ZM7.51795 54.077L11.1637 64.2414L11.446 64.1401L7.80034 53.9757L7.51795 54.077ZM6.83529 54.2994L7.68102 54.1748L7.63727 53.878L6.79154 54.0026L6.83529 54.2994ZM2.75617 64.3478L6.95201 54.2084L6.67481 54.0937L2.47897 64.2331L2.75617 64.3478ZM2.41136 65.0257C2.51999 64.873 2.63463 64.6442 2.75636 64.3474L2.47879 64.2336C2.35966 64.5241 2.25534 64.7275 2.1669 64.8518L2.41136 65.0257ZM1.87498 65.3891C2.10505 65.3156 2.28928 65.1973 2.41136 65.0257L2.1669 64.8518C2.09192 64.9572 1.96961 65.0439 1.78365 65.1034L1.87498 65.3891ZM1.0445 65.6471L1.87382 65.3895L1.78481 65.103L0.955498 65.3606L1.0445 65.6471ZM1.19008 65.8441L1.14902 65.4868L0.85098 65.521L0.892035 65.8784L1.19008 65.8441ZM2.69147 65.6863C2.19717 65.6863 1.64564 65.6947 1.03695 65.7113L1.04516 66.0112C1.65171 65.9946 2.20045 65.9863 2.69147 65.9863V65.6863ZM4.59964 65.7113C3.82179 65.6947 3.18563 65.6863 2.69147 65.6863V65.9863C3.18264 65.9863 3.81645 65.9946 4.59323 66.0112L4.59964 65.7113ZM4.43015 65.4938L4.44658 65.8678L4.74629 65.8547L4.72987 65.4807L4.43015 65.4938ZM3.77409 65.4068L4.53772 65.6312L4.6223 65.3433L3.85867 65.1189L3.77409 65.4068ZM3.48168 65.2535C3.55592 65.3208 3.65649 65.3692 3.77071 65.4057L3.86205 65.12C3.76826 65.09 3.71283 65.0581 3.68306 65.0312L3.48168 65.2535ZM3.35436 64.9304C3.35436 65.0518 3.38855 65.1692 3.48168 65.2535L3.68306 65.0312C3.67218 65.0213 3.65436 64.9974 3.65436 64.9304H3.35436ZM3.46173 64.4475C3.39427 64.6353 3.35436 64.7989 3.35436 64.9304H3.65436C3.65436 64.8514 3.68015 64.7269 3.74406 64.549L3.46173 64.4475ZM3.7332 63.7065C3.61818 64.0169 3.52766 64.264 3.46173 64.4475L3.74406 64.549C3.80951 64.3668 3.89963 64.1208 4.01452 63.8107L3.7332 63.7065ZM4.5962 61.4852L3.73404 63.7042L4.01368 63.8129L4.87584 61.5938L4.5962 61.4852ZM8.69374 61.3895H4.73602V61.6895H8.69374V61.3895ZM9.60731 63.7178L8.83547 61.4904L8.552 61.5886L9.32384 63.816L9.60731 63.7178ZM9.8507 64.4402C9.79266 64.2583 9.71145 64.0173 9.60726 63.7176L9.32389 63.8161C9.42772 64.1148 9.50799 64.3531 9.5649 64.5314L9.8507 64.4402ZM9.94402 64.9221C9.94402 64.7887 9.91006 64.6261 9.8507 64.4402L9.5649 64.5314C9.6205 64.7056 9.64402 64.8339 9.64402 64.9221H9.94402ZM9.83093 65.2478C9.91649 65.1612 9.94402 65.0416 9.94402 64.9221H9.64402C9.64402 65.0021 9.62501 65.0293 9.61752 65.0369L9.83093 65.2478ZM9.54029 65.4126C9.65734 65.3711 9.76068 65.3189 9.83093 65.2478L9.61752 65.0369C9.59471 65.06 9.54204 65.0937 9.44012 65.1298L9.54029 65.4126ZM8.75304 65.6476L9.53309 65.4149L9.44733 65.1274L8.66728 65.3601L8.75304 65.6476ZM8.89237 65.8475L8.85953 65.4902L8.56079 65.5176L8.59363 65.875L8.89237 65.8475ZM10.9518 65.6863C10.3265 65.6863 9.5892 65.6946 8.74006 65.7113L8.74594 66.0112C9.59376 65.9946 10.329 65.9863 10.9518 65.9863V65.6863ZM12.9505 65.7113C12.2325 65.6947 11.5662 65.6863 10.9518 65.6863V65.9863C11.5635 65.9863 12.2274 65.9946 12.9436 66.0112L12.9505 65.7113ZM12.7808 65.5108L12.7972 65.8681L13.0969 65.8544L13.0805 65.497L12.7808 65.5108ZM12.1155 65.4148L12.8873 65.6475L12.9739 65.3603L12.2021 65.1276L12.1155 65.4148ZM11.5628 65.0634C11.6973 65.2261 11.8843 65.3409 12.1131 65.4141L12.2045 65.1283C12.0172 65.0685 11.884 64.9811 11.7941 64.8722L11.5628 65.0634ZM11.1636 64.2413C11.3007 64.6242 11.4324 64.9056 11.5628 65.0634L11.7941 64.8722C11.7001 64.7586 11.5827 64.5219 11.4461 64.1402L11.1636 64.2413ZM5.03952 60.9332H8.42247V60.6332H5.03952V60.9332ZM6.68153 56.1494L4.89973 60.7288L5.17931 60.8376L6.96111 56.2582L6.68153 56.1494ZM8.56406 60.7337L6.96291 56.1543L6.67972 56.2533L8.28087 60.8327L8.56406 60.7337Z" fill="white"/>
<path d="M19.9815 60.1015V63.5672C19.9815 63.8997 19.9829 64.1809 19.9856 64.4108C19.9884 64.6407 19.9925 64.8194 19.9979 64.9469C20.0089 65.0965 20.0801 65.1934 20.2114 65.2378L21.1557 65.5203L21.1721 65.8611C20.4222 65.8445 19.779 65.8361 19.2425 65.8361C18.6951 65.8361 18.1012 65.8445 17.4607 65.8611L17.4279 65.5203L18.2408 65.2793C18.3722 65.2294 18.4406 65.1436 18.4461 65.0217C18.457 64.9109 18.4639 64.7668 18.4666 64.5895C18.4693 64.4122 18.4707 64.1933 18.4707 63.9329V58.8881H16.5329C16.4836 60.0905 16.3427 61.2083 16.11 62.2416C15.8774 63.275 15.553 64.246 15.137 65.1546C15.0713 65.3098 14.9974 65.4372 14.9153 65.537C14.8332 65.6367 14.736 65.7143 14.6238 65.7697C14.5116 65.8251 14.3802 65.8625 14.2297 65.8819C14.0792 65.9013 13.8944 65.9109 13.6755 65.9109C13.3251 65.9109 12.9118 65.8749 12.4356 65.8029L12.3945 65.4871C12.6573 65.4538 12.8872 65.3957 13.0843 65.3126C13.2813 65.2294 13.4401 65.1491 13.5605 65.0715C13.8451 64.8832 14.1093 64.6061 14.3529 64.2404C14.5965 63.8747 14.8127 63.4329 15.0015 62.9148C15.1904 62.3968 15.3478 61.8136 15.4737 61.1654C15.5996 60.5171 15.6872 59.8162 15.7364 59.0627C15.7419 58.9186 15.6653 58.8244 15.5065 58.7801L14.4719 58.4726L14.4555 58.1318C15.2383 58.1485 15.9089 58.1568 16.4672 58.1568H19.1851C19.7434 58.1568 20.3893 58.1485 21.1229 58.1318L21.1557 58.4726L20.2114 58.7552C20.0855 58.7995 20.0144 58.8854 19.9979 59.0128C19.9925 59.1236 19.9884 59.2677 19.9856 59.445C19.9829 59.6223 19.9815 59.8411 19.9815 60.1015Z" fill="white" stroke="white" stroke-width="0.3"/>
<path fill-rule="evenodd" clip-rule="evenodd" d="M24.3737 61.2983V60.1015C24.3737 59.8522 24.3751 59.6403 24.3778 59.4658C24.3805 59.2912 24.3847 59.1486 24.3901 59.0377C24.4011 58.9103 24.4695 58.8272 24.5954 58.7884L25.63 58.4726L25.5971 58.1318C24.8034 58.1485 24.1383 58.1568 23.6019 58.1568C23.0599 58.1568 22.414 58.1485 21.6641 58.1318L21.6805 58.4726L22.633 58.7552C22.7589 58.805 22.8273 58.902 22.8382 59.046C22.8437 59.1624 22.8478 59.3314 22.8506 59.553C22.8533 59.7746 22.8547 60.0517 22.8547 60.3841V63.8914C22.8547 64.1518 22.8533 64.3706 22.8506 64.5479C22.8478 64.7252 22.8437 64.8693 22.8382 64.9801C22.8273 65.1075 22.7589 65.1934 22.633 65.2378L21.6805 65.5203L21.7215 65.8611C22.4496 65.8445 23.0654 65.8361 23.569 65.8361C23.9139 65.8361 24.2218 65.8445 24.4928 65.8611C24.7637 65.8777 25.0196 65.886 25.2605 65.886C26.3991 65.886 27.2736 65.6727 27.8839 65.2461C28.4943 64.8194 28.7994 64.2155 28.7994 63.4343C28.7994 62.7195 28.5162 62.1765 27.9496 61.8053C27.383 61.4341 26.5496 61.2485 25.4493 61.2485C25.11 61.2485 24.7514 61.2651 24.3737 61.2983ZM24.3732 65.1713V61.8801C24.6085 61.8524 24.8385 61.8385 25.0629 61.8385C25.7745 61.8385 26.2959 61.9812 26.6271 62.2666C26.9583 62.5519 27.1239 62.9661 27.1239 63.5091C27.1239 64.0742 26.9514 64.505 26.6066 64.8014C26.2617 65.0978 25.7772 65.2461 25.1532 65.2461C24.7865 65.2461 24.5264 65.2211 24.3732 65.1713Z" fill="white"/>
<path d="M24.3737 61.2983H24.2237V61.4621L24.3869 61.4478L24.3737 61.2983ZM24.3901 59.0377L24.2406 59.0249L24.2403 59.0303L24.3901 59.0377ZM24.5954 58.7884L24.5516 58.6449L24.5512 58.6451L24.5954 58.7884ZM25.63 58.4726L25.6738 58.6161L25.7911 58.5803L25.7793 58.4582L25.63 58.4726ZM25.5971 58.1318L25.7465 58.1174L25.7331 57.979L25.594 57.9819L25.5971 58.1318ZM21.6641 58.1318L21.6674 57.9819L21.5065 57.9783L21.5142 58.1391L21.6641 58.1318ZM21.6805 58.4726L21.5307 58.4798L21.5358 58.5861L21.6378 58.6164L21.6805 58.4726ZM22.633 58.7552L22.6884 58.6152L22.6756 58.6114L22.633 58.7552ZM22.8382 59.046L22.9881 59.039L22.9878 59.0347L22.8382 59.046ZM22.8506 64.5479L22.7006 64.5456L22.8506 64.5479ZM22.8382 64.9801L22.9878 64.993L22.9881 64.9875L22.8382 64.9801ZM22.633 65.2378L22.6757 65.3817L22.6828 65.3792L22.633 65.2378ZM21.6805 65.5203L21.6378 65.3765L21.5164 65.4125L21.5316 65.5383L21.6805 65.5203ZM21.7215 65.8611L21.5726 65.879L21.5889 66.0141L21.725 66.011L21.7215 65.8611ZM24.4928 65.8611L24.5019 65.7114H24.5019L24.4928 65.8611ZM27.9496 61.8053L28.0318 61.6798L27.9496 61.8053ZM24.3732 61.8801L24.3556 61.7311L24.2232 61.7467V61.8801H24.3732ZM24.3732 65.1713H24.2232V65.2802L24.3268 65.3139L24.3732 65.1713ZM26.6271 62.2666L26.725 62.1529L26.6271 62.2666ZM24.2237 60.1015V61.2983H24.5237V60.1015H24.2237ZM24.2278 59.4634C24.2251 59.639 24.2237 59.8517 24.2237 60.1015H24.5237C24.5237 59.8527 24.5251 59.6416 24.5278 59.4681L24.2278 59.4634ZM24.2403 59.0303C24.2347 59.1435 24.2306 59.288 24.2278 59.4634L24.5278 59.4681C24.5305 59.2944 24.5346 59.1536 24.5399 59.0451L24.2403 59.0303ZM24.5512 58.6451C24.4666 58.6711 24.3905 58.7156 24.3339 58.7845C24.2769 58.8536 24.2483 58.9367 24.2407 59.0249L24.5396 59.0506C24.5429 59.0113 24.554 58.9891 24.5655 58.9752C24.5772 58.9609 24.5983 58.9445 24.6396 58.9318L24.5512 58.6451ZM25.5862 58.3291L24.5516 58.6449L24.6392 58.9319L25.6738 58.6161L25.5862 58.3291ZM25.4478 58.1462L25.4807 58.487L25.7793 58.4582L25.7465 58.1174L25.4478 58.1462ZM23.6019 58.3068C24.1397 58.3068 24.806 58.2984 25.6003 58.2818L25.594 57.9819C24.8009 57.9985 24.1369 58.0068 23.6019 58.0068V58.3068ZM21.6607 58.2818C22.4114 58.2984 23.0585 58.3068 23.6019 58.3068V58.0068C23.0614 58.0068 22.4166 57.9985 21.6674 57.9819L21.6607 58.2818ZM21.8303 58.4654L21.8139 58.1246L21.5142 58.1391L21.5307 58.4798L21.8303 58.4654ZM22.6756 58.6114L21.7231 58.3288L21.6378 58.6164L22.5903 58.899L22.6756 58.6114ZM22.9878 59.0347C22.9807 58.9415 22.9542 58.8538 22.9013 58.7788C22.848 58.7033 22.7743 58.6498 22.6882 58.6157L22.5777 58.8946C22.6175 58.9104 22.641 58.9304 22.6562 58.9518C22.6717 58.9737 22.6848 59.0065 22.6887 59.0574L22.9878 59.0347ZM23.0005 59.5512C22.9978 59.3291 22.9937 59.158 22.9881 59.039L22.6884 59.0531C22.6938 59.1668 22.6978 59.3337 22.7006 59.5549L23.0005 59.5512ZM23.0047 60.3841C23.0047 60.0513 23.0033 59.7736 23.0005 59.5512L22.7006 59.5549C22.7033 59.7757 22.7047 60.052 22.7047 60.3841H23.0047ZM23.0047 63.8914V60.3841H22.7047V63.8914H23.0047ZM23.0005 64.5503C23.0033 64.3719 23.0047 64.1522 23.0047 63.8914H22.7047C22.7047 64.1513 22.7033 64.3694 22.7006 64.5456L23.0005 64.5503ZM22.9881 64.9875C22.9936 64.8743 22.9978 64.7284 23.0005 64.5503L22.7006 64.5456C22.6979 64.7221 22.6938 64.8643 22.6884 64.9727L22.9881 64.9875ZM22.6828 65.3792C22.7665 65.3498 22.8408 65.3029 22.896 65.2336C22.9515 65.1639 22.9801 65.0812 22.9877 64.993L22.6888 64.9673C22.6854 65.0065 22.6743 65.0304 22.6614 65.0466C22.6482 65.0632 22.6253 65.0814 22.5832 65.0963L22.6828 65.3792ZM21.7231 65.6641L22.6756 65.3816L22.5903 65.094L21.6378 65.3765L21.7231 65.6641ZM21.8705 65.8431L21.8294 65.5024L21.5316 65.5383L21.5726 65.879L21.8705 65.8431ZM23.569 65.6861C23.0639 65.6861 22.4468 65.6945 21.7181 65.7111L21.725 66.011C22.4523 65.9944 23.0669 65.9861 23.569 65.9861V65.6861ZM24.5019 65.7114C24.2272 65.6945 23.9162 65.6861 23.569 65.6861V65.9861C23.9116 65.9861 24.2164 65.9944 24.4836 66.0108L24.5019 65.7114ZM25.2605 65.736C25.0231 65.736 24.7702 65.7278 24.5019 65.7114L24.4836 66.0108C24.7572 66.0276 25.0162 66.036 25.2605 66.036V65.736ZM27.798 65.1231C27.2229 65.5251 26.3836 65.736 25.2605 65.736V66.036C26.4146 66.036 27.3242 65.8203 27.9699 65.369L27.798 65.1231ZM28.6494 63.4343C28.6494 64.1694 28.3659 64.7261 27.798 65.1231L27.9699 65.369C28.6226 64.9127 28.9494 64.2616 28.9494 63.4343H28.6494ZM27.8674 61.9308C28.3889 62.2725 28.6494 62.7667 28.6494 63.4343H28.9494C28.9494 62.6723 28.6434 62.0806 28.0318 61.6798L27.8674 61.9308ZM25.4493 61.3985C26.537 61.3985 27.3362 61.5827 27.8674 61.9308L28.0318 61.6798C27.4299 61.2855 26.5623 61.0985 25.4493 61.0985V61.3985ZM24.3869 61.4478C24.7607 61.4149 25.1148 61.3985 25.4493 61.3985V61.0985C25.1051 61.0985 24.7421 61.1153 24.3606 61.1489L24.3869 61.4478ZM24.2232 61.8801V65.1713H24.5232V61.8801H24.2232ZM25.0629 61.6885C24.8323 61.6885 24.5965 61.7028 24.3556 61.7311L24.3907 62.0291C24.6206 62.002 24.8446 61.9885 25.0629 61.9885V61.6885ZM26.725 62.1529C26.354 61.8333 25.7893 61.6885 25.0629 61.6885V61.9885C25.7597 61.9885 26.2378 62.1291 26.5292 62.3802L26.725 62.1529ZM27.2739 63.5091C27.2739 62.9339 27.097 62.4735 26.725 62.1529L26.5292 62.3802C26.8195 62.6303 26.9739 62.9983 26.9739 63.5091H27.2739ZM26.7043 64.9152C27.0902 64.5835 27.2739 64.1064 27.2739 63.5091H26.9739C26.9739 64.042 26.8127 64.4265 26.5088 64.6877L26.7043 64.9152ZM25.1532 65.3961C25.7998 65.3961 26.3236 65.2424 26.7043 64.9152L26.5088 64.6877C26.1998 64.9533 25.7547 65.0961 25.1532 65.0961V65.3961ZM24.3268 65.3139C24.5046 65.3717 24.7856 65.3961 25.1532 65.3961V65.0961C24.7873 65.0961 24.5483 65.0705 24.4196 65.0286L24.3268 65.3139Z" fill="white"/>
<path fill-rule="evenodd" clip-rule="evenodd" d="M33.0844 62.5284H34.0287V64.1573C34.0287 64.4233 34.0273 64.62 34.0245 64.7474C34.0218 64.8749 34.0177 64.9663 34.0122 65.0217C34.0068 65.1436 33.9383 65.2295 33.807 65.2793L32.9859 65.5204L33.0269 65.8611C33.6674 65.8445 34.2558 65.8362 34.7923 65.8362C35.3233 65.8362 35.9665 65.8445 36.7219 65.8611L36.7055 65.5204L35.753 65.2378C35.6216 65.1934 35.5532 65.0965 35.5477 64.9469C35.5367 64.6311 35.5313 64.1712 35.5313 63.5673V60.1016C35.5313 59.8412 35.5326 59.6223 35.5354 59.445C35.5381 59.2677 35.5422 59.1236 35.5477 59.0128C35.5532 58.8909 35.6216 58.805 35.753 58.7552L36.7055 58.4726L36.6726 58.1319C35.9336 58.1485 35.2959 58.1568 34.7594 58.1568C34.3927 58.1568 34.0588 58.1499 33.7577 58.136C33.4566 58.1222 33.1364 58.1152 32.797 58.1152C31.8555 58.1152 31.1014 58.3064 30.5349 58.6887C29.9683 59.071 29.685 59.6084 29.685 60.301C29.685 61.2873 30.2488 61.9577 31.3765 62.3123C31.2342 62.5339 31.1001 62.7625 30.9742 62.998C30.8482 63.2334 30.7169 63.4675 30.58 63.7002C30.4158 63.9939 30.2529 64.264 30.0915 64.5106C29.93 64.7571 29.7726 64.9552 29.6193 65.1048C29.488 65.2378 29.3415 65.332 29.18 65.3874C29.0186 65.4428 28.8283 65.4926 28.6094 65.537L28.634 65.8528C28.9022 65.8916 29.2088 65.911 29.5536 65.911C29.7233 65.911 29.8698 65.9068 29.9929 65.8985C30.1161 65.8902 30.2269 65.8763 30.3255 65.8569C30.424 65.8376 30.5116 65.8099 30.5882 65.7738C30.6649 65.7378 30.7442 65.6949 30.8264 65.645C30.9851 65.5342 31.1411 65.3666 31.2944 65.1422C31.4477 64.9178 31.5982 64.6671 31.746 64.3901C31.8774 64.1463 32.0101 63.8997 32.1442 63.6504C32.2783 63.401 32.4193 63.1573 32.5671 62.919C32.6054 62.8581 32.641 62.804 32.6738 62.7569C32.7067 62.7098 32.7409 62.6697 32.7765 62.6364C32.8121 62.6032 32.8545 62.5783 32.9037 62.5616C32.953 62.545 33.0132 62.5339 33.0844 62.5284ZM33.6057 58.7926C33.7343 58.8009 33.8752 58.8106 34.0285 58.8217V61.9799H33.347C32.6409 61.9799 32.1277 61.8427 31.8074 61.5685C31.4872 61.2942 31.3271 60.8939 31.3271 60.3675C31.3271 59.3093 31.973 58.7801 33.2649 58.7801C33.3634 58.7801 33.477 58.7843 33.6057 58.7926Z" fill="white"/>
<path d="M34.0287 62.5284H34.1787V62.3784H34.0287V62.5284ZM33.0844 62.5284V62.3779L33.0727 62.3788L33.0844 62.5284ZM34.0245 64.7474L33.8746 64.7442V64.7442L34.0245 64.7474ZM34.0122 65.0217L33.8627 65.0069L33.8624 65.015L34.0122 65.0217ZM33.807 65.2793L33.8493 65.4237L33.8602 65.4196L33.807 65.2793ZM32.9859 65.5204L32.9436 65.3764L32.8217 65.4122L32.8369 65.5383L32.9859 65.5204ZM33.0269 65.8611L32.878 65.879L32.8943 66.0146L33.0308 66.0111L33.0269 65.8611ZM36.7219 65.8611L36.7186 66.0111L36.8794 66.0146L36.8717 65.8539L36.7219 65.8611ZM36.7055 65.5204L36.8553 65.5131L36.8502 65.4068L36.7481 65.3765L36.7055 65.5204ZM35.753 65.2378L35.705 65.38L35.7103 65.3816L35.753 65.2378ZM35.5477 64.9469L35.3978 64.9521L35.3978 64.9524L35.5477 64.9469ZM35.5354 59.445L35.6854 59.4473L35.5354 59.445ZM35.5477 59.0128L35.6975 59.0202L35.6975 59.0196L35.5477 59.0128ZM35.753 58.7552L35.7102 58.611L35.6997 58.6149L35.753 58.7552ZM36.7055 58.4726L36.7481 58.6164L36.8666 58.5813L36.8548 58.4582L36.7055 58.4726ZM36.6726 58.1319L36.8219 58.1175L36.8085 57.9788L36.6692 57.9819L36.6726 58.1319ZM33.7577 58.136L33.7508 58.2859L33.7577 58.136ZM30.5349 58.6887L30.451 58.5644L30.451 58.5644L30.5349 58.6887ZM31.3765 62.3123L31.5027 62.3934L31.6088 62.2281L31.4215 62.1692L31.3765 62.3123ZM30.58 63.7002L30.4507 63.6242L30.4491 63.627L30.58 63.7002ZM29.6193 65.1048L29.5145 64.9974L29.5126 64.9994L29.6193 65.1048ZM29.18 65.3874L29.1314 65.2455H29.1314L29.18 65.3874ZM28.6094 65.537L28.5796 65.39L28.4495 65.4163L28.4598 65.5486L28.6094 65.537ZM28.634 65.8528L28.4845 65.8645L28.4938 65.9841L28.6125 66.0012L28.634 65.8528ZM29.9929 65.8985L30.003 66.0482H30.003L29.9929 65.8985ZM30.3255 65.8569L30.3544 66.0041H30.3544L30.3255 65.8569ZM30.5882 65.7738L30.652 65.9096L30.5882 65.7738ZM30.8264 65.645L30.9044 65.7735L30.9122 65.768L30.8264 65.645ZM31.2944 65.1422L31.1705 65.0576H31.1705L31.2944 65.1422ZM31.746 64.3901L31.6139 64.3189L31.6136 64.3194L31.746 64.3901ZM32.5671 62.919L32.4401 62.8392L32.4396 62.8399L32.5671 62.919ZM32.9037 62.5616L32.9517 62.7038H32.9517L32.9037 62.5616ZM34.0285 58.8217H34.1785V58.6821L34.0393 58.6721L34.0285 58.8217ZM33.6057 58.7926L33.596 58.9423L33.6057 58.7926ZM34.0285 61.9799V62.1299H34.1785V61.9799H34.0285ZM31.8074 61.5685L31.905 61.4545L31.8074 61.5685ZM34.0287 62.3784H33.0844V62.6784H34.0287V62.3784ZM34.1787 64.1573V62.5284H33.8787V64.1573H34.1787ZM34.1745 64.7506C34.1773 64.6215 34.1787 64.4235 34.1787 64.1573H33.8787C33.8787 64.4231 33.8773 64.6185 33.8746 64.7442L34.1745 64.7506ZM34.1615 65.0364C34.1676 64.9748 34.1718 64.8783 34.1745 64.7506L33.8746 64.7442C33.8719 64.8714 33.8678 64.9578 33.863 65.0069L34.1615 65.0364ZM33.8602 65.4196C33.9441 65.3877 34.0191 65.3401 34.0741 65.271C34.1302 65.2006 34.1581 65.1173 34.1621 65.0284L33.8624 65.015C33.8609 65.048 33.8518 65.0686 33.8395 65.084C33.8261 65.1008 33.8012 65.1211 33.7537 65.1391L33.8602 65.4196ZM33.0281 65.6643L33.8492 65.4233L33.7647 65.1354L32.9436 65.3764L33.0281 65.6643ZM33.1758 65.8432L33.1348 65.5024L32.8369 65.5383L32.878 65.879L33.1758 65.8432ZM34.7923 65.6862C34.2543 65.6862 33.6645 65.6945 33.023 65.7112L33.0308 66.0111C33.6702 65.9945 34.2573 65.9862 34.7923 65.9862V65.6862ZM36.7252 65.7111C35.9691 65.6945 35.3247 65.6862 34.7923 65.6862V65.9862C35.3218 65.9862 35.9638 65.9945 36.7186 66.0111L36.7252 65.7111ZM36.5556 65.5276L36.572 65.8683L36.8717 65.8539L36.8553 65.5131L36.5556 65.5276ZM35.7103 65.3816L36.6628 65.6642L36.7481 65.3765L35.7956 65.094L35.7103 65.3816ZM35.3978 64.9524C35.4013 65.0487 35.4257 65.1405 35.4806 65.2183C35.5361 65.297 35.6144 65.3493 35.705 65.3799L35.8009 65.0956C35.7601 65.0819 35.7386 65.0636 35.7257 65.0453C35.7121 65.0261 35.6995 64.9947 35.6976 64.9414L35.3978 64.9524ZM35.3813 63.5673C35.3813 64.1717 35.3867 64.6336 35.3978 64.9521L35.6976 64.9417C35.6867 64.6285 35.6813 64.1707 35.6813 63.5673H35.3813ZM35.3813 60.1016V63.5673H35.6813V60.1016H35.3813ZM35.3854 59.4427C35.3826 59.621 35.3813 59.8407 35.3813 60.1016H35.6813C35.6813 59.8416 35.6826 59.6236 35.6854 59.4473L35.3854 59.4427ZM35.3979 59.0054C35.3923 59.1186 35.3881 59.2646 35.3854 59.4427L35.6854 59.4473C35.6881 59.2708 35.6922 59.1287 35.6975 59.0202L35.3979 59.0054ZM35.6997 58.6149C35.6158 58.6468 35.5409 58.6944 35.4858 58.7635C35.4297 58.834 35.4018 58.9172 35.3978 59.0061L35.6975 59.0196C35.699 58.9865 35.7081 58.9659 35.7204 58.9505C35.7338 58.9337 35.7588 58.9134 35.8062 58.8954L35.6997 58.6149ZM36.6628 58.3288L35.7103 58.6114L35.7956 58.899L36.7481 58.6164L36.6628 58.3288ZM36.5233 58.1462L36.5561 58.487L36.8548 58.4582L36.8219 58.1175L36.5233 58.1462ZM34.7594 58.3068C35.2973 58.3068 35.9362 58.2985 36.676 58.2818L36.6692 57.9819C35.931 57.9985 35.2944 58.0068 34.7594 58.0068V58.3068ZM33.7508 58.2859C34.0546 58.2998 34.3909 58.3068 34.7594 58.3068V58.0068C34.3945 58.0068 34.0629 57.9999 33.7646 57.9862L33.7508 58.2859ZM32.797 58.2652C33.1344 58.2652 33.4523 58.2721 33.7508 58.2859L33.7646 57.9862C33.461 57.9722 33.1384 57.9652 32.797 57.9652V58.2652ZM30.6188 58.813C31.1528 58.4527 31.8744 58.2652 32.797 58.2652V57.9652C31.8365 57.9652 31.05 58.1601 30.451 58.5644L30.6188 58.813ZM29.835 60.301C29.835 59.6575 30.0942 59.167 30.6188 58.813L30.451 58.5644C29.8424 58.975 29.535 59.5594 29.535 60.301H29.835ZM31.4215 62.1692C30.8756 61.9976 30.4809 61.754 30.2227 61.447C29.9664 61.1422 29.835 60.7636 29.835 60.301H29.535C29.535 60.8247 29.6856 61.2744 29.9931 61.6401C30.2987 62.0035 30.7497 62.2724 31.3315 62.4554L31.4215 62.1692ZM31.1064 63.0687C31.2305 62.8367 31.3626 62.6116 31.5027 62.3934L31.2503 62.2312C31.1058 62.4563 30.9696 62.6883 30.8419 62.9272L31.1064 63.0687ZM30.7093 63.7763C30.8472 63.5418 30.9796 63.306 31.1064 63.0687L30.8419 62.9272C30.7169 63.1609 30.5866 63.3932 30.4507 63.6242L30.7093 63.7763ZM30.2169 64.5927C30.3806 64.3429 30.5452 64.0697 30.7109 63.7735L30.4491 63.627C30.2864 63.918 30.1253 64.1851 29.966 64.4284L30.2169 64.5927ZM29.7241 65.2121C29.8875 65.0527 30.0516 64.8453 30.2169 64.5927L29.966 64.4284C29.8084 64.669 29.6577 64.8577 29.5146 64.9975L29.7241 65.2121ZM29.2287 65.5293C29.4141 65.4656 29.58 65.3581 29.726 65.2102L29.5126 64.9994C29.3959 65.1175 29.2689 65.1983 29.1314 65.2455L29.2287 65.5293ZM28.6391 65.684C28.8627 65.6387 29.0595 65.5873 29.2287 65.5293L29.1314 65.2455C28.9776 65.2982 28.794 65.3466 28.5796 65.39L28.6391 65.684ZM28.7836 65.8411L28.7589 65.5253L28.4598 65.5486L28.4845 65.8645L28.7836 65.8411ZM29.5536 65.761C29.2141 65.761 28.915 65.7419 28.6555 65.7043L28.6125 66.0012C28.8895 66.0413 29.2034 66.061 29.5536 66.061V65.761ZM29.9828 65.7488C29.864 65.7569 29.7211 65.761 29.5536 65.761V66.061C29.7256 66.061 29.8755 66.0568 30.003 66.0482L29.9828 65.7488ZM30.2965 65.7098C30.2054 65.7277 30.101 65.7409 29.9828 65.7488L30.003 66.0482C30.1312 66.0395 30.2485 66.025 30.3544 66.0041L30.2965 65.7098ZM30.5244 65.6381C30.4607 65.668 30.3852 65.6923 30.2965 65.7098L30.3544 66.0041C30.4629 65.9828 30.5625 65.9517 30.652 65.9096L30.5244 65.6381ZM30.7485 65.5168C30.6703 65.5643 30.5957 65.6046 30.5244 65.6381L30.652 65.9096C30.7341 65.871 30.8181 65.8255 30.9042 65.7732L30.7485 65.5168ZM31.1705 65.0576C31.0237 65.2726 30.8797 65.4249 30.7405 65.522L30.9122 65.768C31.0905 65.6435 31.2586 65.4606 31.4182 65.2268L31.1705 65.0576ZM31.6136 64.3194C31.468 64.5924 31.3203 64.8383 31.1705 65.0576L31.4182 65.2268C31.575 64.9973 31.7283 64.7418 31.8783 64.4607L31.6136 64.3194ZM32.0121 63.5793C31.878 63.8286 31.7453 64.0751 31.6139 64.3189L31.878 64.4612C32.0094 64.2174 32.1422 63.9708 32.2763 63.7214L32.0121 63.5793ZM32.4396 62.8399C32.2902 63.0808 32.1477 63.3273 32.0121 63.5793L32.2763 63.7214C32.409 63.4748 32.5484 63.2337 32.6946 62.9981L32.4396 62.8399ZM32.5508 62.6711C32.5163 62.7206 32.4794 62.7767 32.4401 62.8392L32.6941 62.9988C32.7314 62.9394 32.7657 62.8875 32.7969 62.8427L32.5508 62.6711ZM32.6741 62.5268C32.6296 62.5684 32.5886 62.6169 32.5508 62.6711L32.7969 62.8427C32.8247 62.8028 32.8522 62.7709 32.8789 62.746L32.6741 62.5268ZM32.8558 62.4195C32.7877 62.4425 32.7263 62.478 32.6741 62.5268L32.8789 62.746C32.8978 62.7284 32.9213 62.714 32.9517 62.7038L32.8558 62.4195ZM33.0727 62.3788C32.9935 62.385 32.9202 62.3978 32.8558 62.4195L32.9517 62.7038C32.9858 62.6923 33.033 62.6828 33.096 62.6779L33.0727 62.3788ZM34.0393 58.6721C33.8858 58.661 33.7444 58.6512 33.6153 58.6429L33.596 58.9423C33.7242 58.9506 33.8647 58.9602 34.0177 58.9713L34.0393 58.6721ZM34.1785 61.9799V58.8217H33.8785V61.9799H34.1785ZM33.347 62.1299H34.0285V61.8299H33.347V62.1299ZM31.7099 61.6824C32.0704 61.9912 32.6274 62.1299 33.347 62.1299V61.8299C32.6543 61.8299 32.1849 61.6943 31.905 61.4545L31.7099 61.6824ZM31.1771 60.3675C31.1771 60.9259 31.3483 61.3728 31.7099 61.6824L31.905 61.4545C31.6261 61.2156 31.4771 60.8619 31.4771 60.3675H31.1771ZM33.2649 58.6301C32.6023 58.6301 32.0775 58.7652 31.7165 59.0609C31.3498 59.3614 31.1771 59.8065 31.1771 60.3675H31.4771C31.4771 59.8703 31.6274 59.5217 31.9066 59.293C32.1915 59.0596 32.6356 58.9301 33.2649 58.9301V58.6301ZM33.6153 58.6429C33.4844 58.6344 33.3675 58.6301 33.2649 58.6301V58.9301C33.3594 58.9301 33.4696 58.9341 33.596 58.9423L33.6153 58.6429Z" fill="white"/>
<path d="M45.0607 64.9469C45.0716 65.0965 45.1401 65.1934 45.266 65.2378L46.2184 65.5203L46.2349 65.8611C45.4794 65.8445 44.8335 65.8361 44.2971 65.8361C43.7606 65.8361 43.1667 65.8445 42.5153 65.8611L42.4824 65.5203L43.3035 65.2793C43.4294 65.235 43.4979 65.1491 43.5088 65.0217C43.5197 64.8111 43.5252 64.4482 43.5252 63.9329V62.1377H39.9206V63.6088C39.9206 64.2737 39.9261 64.7336 39.937 64.9884C39.9479 65.138 40.0164 65.235 40.1423 65.2793L40.9634 65.5203L40.9798 65.8611C40.312 65.8445 39.7126 65.8361 39.1816 65.8361C38.6397 65.8361 38.0019 65.8445 37.2684 65.8611L37.2274 65.5203L38.1798 65.2378C38.3057 65.1934 38.3742 65.1075 38.3851 64.9801C38.3961 64.764 38.4015 64.4011 38.4015 63.8914V60.4174C38.4015 59.758 38.3961 59.3009 38.3851 59.046C38.3742 58.8964 38.3057 58.7995 38.1798 58.7552L37.2274 58.4726L37.2109 58.1318C37.9664 58.1485 38.6123 58.1568 39.1487 58.1568C39.6852 58.1568 40.2791 58.1485 40.9305 58.1318L40.9634 58.4726L40.1423 58.7136C40.0164 58.7579 39.9479 58.8438 39.937 58.9712C39.9261 59.1873 39.9206 59.5502 39.9206 60.06V61.423H43.5252V60.3841C43.5252 59.7192 43.5197 59.2594 43.5088 59.0045C43.4979 58.8549 43.4294 58.7579 43.3035 58.7136L42.4824 58.4726L42.466 58.1318C43.1338 58.1485 43.7332 58.1568 44.2642 58.1568C44.8061 58.1568 45.4439 58.1485 46.1774 58.1318L46.2184 58.4726L45.266 58.7552C45.1401 58.7995 45.0716 58.8854 45.0607 59.0128C45.0497 59.2289 45.0443 59.5918 45.0443 60.1015V63.5672C45.0443 64.2321 45.0497 64.692 45.0607 64.9469Z" fill="white" stroke="white" stroke-width="0.3"/>
<path d="M53.4587 65.2463C53.1193 65.479 52.6992 65.6743 52.1983 65.8322C51.6974 65.9901 51.2007 66.0691 50.708 66.0691C49.5256 66.0691 48.5896 65.7186 47.8998 65.0177C47.2101 64.3169 46.8652 63.3819 46.8652 62.2128C46.8652 60.944 47.2566 59.9148 48.0394 59.1252C48.8222 58.3357 49.8349 57.9409 51.0775 57.9409C51.8822 57.9409 52.6622 58.1071 53.4176 58.4396C53.237 59.182 53.0755 59.9411 52.9332 60.7168L52.613 60.7667L51.9479 58.772C51.6961 58.6834 51.4114 58.639 51.0939 58.639C50.2783 58.639 49.6406 58.9272 49.1807 59.5034C48.7209 60.0796 48.491 60.8415 48.491 61.7889C48.491 62.9026 48.751 63.7254 49.2711 64.2573C49.7911 64.7892 50.6149 65.0551 51.7426 65.0551C52.2626 65.0551 52.8182 65.0025 53.4094 64.8972L53.4587 65.2463Z" fill="white" stroke="white" stroke-width="0.3"/>
<path d="M114.954 64.9307C114.959 65.0803 115.031 65.1745 115.167 65.2133L116.079 65.5042L116.103 65.8615C115.452 65.8449 114.801 65.8366 114.149 65.8366C113.498 65.8366 112.819 65.8449 112.113 65.8615L112.08 65.5042L113.09 65.1966C113.232 65.1523 113.306 65.0664 113.312 64.939C113.323 64.4902 113.328 63.9389 113.328 63.2851V56.5449C113.328 55.9908 113.323 55.5309 113.312 55.1652C113.306 55.0212 113.241 54.927 113.115 54.8827L112.097 54.5585L112.08 54.2012C112.786 54.2233 113.465 54.2344 114.116 54.2344H121.4C122.051 54.2344 122.719 54.2233 123.403 54.2012L123.436 54.5585L122.401 54.8827C122.275 54.927 122.21 55.0212 122.204 55.1652C122.193 55.5309 122.188 55.9908 122.188 56.5449V63.2851C122.188 63.9389 122.193 64.4902 122.204 64.939C122.21 65.0664 122.284 65.1523 122.426 65.1966L123.42 65.5042L123.436 65.8615C122.713 65.8449 122.024 65.8366 121.367 65.8366C120.715 65.8366 120.078 65.8449 119.454 65.8615L119.421 65.5042L120.349 65.2133C120.485 65.1745 120.557 65.0803 120.562 64.9307C120.578 64.4874 120.587 63.9389 120.587 63.2851V54.9907H114.938V63.2851C114.938 63.9389 114.943 64.4874 114.954 64.9307Z" fill="white" stroke="white" stroke-width="0.3"/>
<path fill-rule="evenodd" clip-rule="evenodd" d="M123.508 58.5232L123.549 58.8058L124.641 59.1216C124.663 59.7698 124.674 61.3212 124.674 63.7757V67.1583C124.674 67.9783 124.668 68.5906 124.657 68.9951C124.652 69.128 124.583 69.2139 124.452 69.2527L123.508 69.5353L123.541 69.876C124.274 69.8594 124.909 69.8511 125.446 69.8511C125.982 69.8511 126.677 69.8594 127.531 69.876L127.507 69.5353L126.431 69.2278C126.294 69.1945 126.22 69.0948 126.209 68.9286C126.198 68.7069 126.193 68.3191 126.193 67.765V65.9449C126.647 66.028 127.085 66.0696 127.507 66.0696C128.924 66.0696 130.019 65.6748 130.791 64.8853C131.563 64.0957 131.949 63.0222 131.949 61.6647C131.949 60.5621 131.649 59.6659 131.05 58.9761C130.45 58.2863 129.641 57.9414 128.623 57.9414C127.841 57.9414 127.03 58.2323 126.193 58.8141V57.9996L126.111 57.9414C125.295 58.152 124.427 58.3459 123.508 58.5232ZM127.572 65.3549C127.129 65.3549 126.669 65.3022 126.193 65.197V59.3128C126.653 59.069 127.178 58.9471 127.769 58.9471C128.59 58.9471 129.22 59.2047 129.658 59.72C130.096 60.2353 130.315 60.9999 130.315 62.0139C130.315 63.0887 130.085 63.9143 129.625 64.4905C129.165 65.0668 128.481 65.3549 127.572 65.3549Z" fill="white"/>
<path d="M123.549 58.8058L123.4 58.8273L123.414 58.923L123.507 58.9498L123.549 58.8058ZM123.508 58.5232L123.479 58.3759L123.339 58.403L123.359 58.5447L123.508 58.5232ZM124.641 59.1216L124.791 59.1165L124.787 59.0077L124.683 58.9775L124.641 59.1216ZM124.657 68.9951L124.807 69.0012L124.807 68.9991L124.657 68.9951ZM124.452 69.2527L124.41 69.1088L124.409 69.109L124.452 69.2527ZM123.508 69.5353L123.465 69.3916L123.347 69.4269L123.359 69.5497L123.508 69.5353ZM123.541 69.876L123.391 69.8904L123.405 70.0291L123.544 70.026L123.541 69.876ZM127.531 69.876L127.528 70.026L127.693 70.0292L127.681 69.8652L127.531 69.876ZM127.507 69.5353L127.656 69.5245L127.649 69.4199L127.548 69.3911L127.507 69.5353ZM126.431 69.2278L126.472 69.0834L126.466 69.082L126.431 69.2278ZM126.209 68.9286L126.059 68.936L126.06 68.9384L126.209 68.9286ZM126.193 65.9449L126.22 65.7974L126.043 65.765V65.9449H126.193ZM130.791 64.8853L130.684 64.7804L130.791 64.8853ZM131.05 58.9761L131.163 58.8777L131.05 58.9761ZM126.193 58.8141H126.043V59.1009L126.278 58.9373L126.193 58.8141ZM126.193 57.9996H126.343V57.922L126.28 57.8772L126.193 57.9996ZM126.111 57.9414L126.197 57.819L126.141 57.7788L126.073 57.7962L126.111 57.9414ZM126.193 65.197H126.043V65.3174L126.16 65.3434L126.193 65.197ZM126.193 59.3128L126.123 59.1802L126.043 59.2225V59.3128H126.193ZM129.658 59.72L129.772 59.6229L129.658 59.72ZM123.697 58.7842L123.656 58.5016L123.359 58.5447L123.4 58.8273L123.697 58.7842ZM124.683 58.9775L123.591 58.6617L123.507 58.9498L124.599 59.2657L124.683 58.9775ZM124.824 63.7757C124.824 61.3221 124.813 59.7678 124.791 59.1165L124.491 59.1266C124.513 59.7718 124.524 61.3204 124.524 63.7757H124.824ZM124.824 67.1583V63.7757H124.524V67.1583H124.824ZM124.807 68.9991C124.818 68.5925 124.824 67.9786 124.824 67.1583H124.524C124.524 67.9781 124.518 68.5886 124.507 68.991L124.807 68.9991ZM124.495 69.3966C124.582 69.3706 124.662 69.3251 124.719 69.2527C124.777 69.1799 124.803 69.0926 124.807 69.0012L124.507 68.9889C124.506 69.0305 124.495 69.0526 124.485 69.0657C124.474 69.0792 124.453 69.096 124.41 69.1088L124.495 69.3966ZM123.551 69.679L124.495 69.3964L124.409 69.109L123.465 69.3916L123.551 69.679ZM123.69 69.8616L123.657 69.5209L123.359 69.5497L123.391 69.8904L123.69 69.8616ZM125.446 69.7011C124.908 69.7011 124.272 69.7094 123.537 69.7261L123.544 70.026C124.277 70.0094 124.911 70.0011 125.446 70.0011V69.7011ZM127.534 69.7261C126.68 69.7094 125.983 69.7011 125.446 69.7011V70.0011C125.981 70.0011 126.675 70.0094 127.528 70.026L127.534 69.7261ZM127.357 69.5461L127.382 69.8868L127.681 69.8652L127.656 69.5245L127.357 69.5461ZM126.39 69.372L127.465 69.6795L127.548 69.3911L126.472 69.0835L126.39 69.372ZM126.06 68.9384C126.066 69.0407 126.093 69.1377 126.152 69.2173C126.213 69.2992 126.298 69.3498 126.396 69.3735L126.466 69.082C126.427 69.0725 126.407 69.0566 126.393 69.0387C126.379 69.0187 126.363 68.9827 126.359 68.9187L126.06 68.9384ZM126.043 67.765C126.043 68.319 126.048 68.7102 126.059 68.936L126.359 68.9212C126.348 68.7037 126.343 68.3192 126.343 67.765H126.043ZM126.043 65.9449V67.765H126.343V65.9449H126.043ZM127.507 65.9196C127.095 65.9196 126.666 65.879 126.22 65.7974L126.166 66.0925C126.628 66.1771 127.075 66.2196 127.507 66.2196V65.9196ZM130.684 64.7804C129.948 65.5335 128.896 65.9196 127.507 65.9196V66.2196C128.953 66.2196 130.091 65.8161 130.898 64.9901L130.684 64.7804ZM131.799 61.6647C131.799 62.9925 131.422 64.025 130.684 64.7804L130.898 64.9901C131.703 64.1664 132.099 63.0519 132.099 61.6647H131.799ZM130.936 59.0745C131.507 59.7317 131.799 60.5905 131.799 61.6647H132.099C132.099 60.5338 131.791 59.6002 131.163 58.8777L130.936 59.0745ZM128.623 58.0914C129.604 58.0914 130.369 58.4215 130.936 59.0745L131.163 58.8777C130.532 58.1512 129.679 57.7914 128.623 57.7914V58.0914ZM126.278 58.9373C127.098 58.3677 127.879 58.0914 128.623 58.0914V57.7914C127.802 57.7914 126.962 58.0969 126.107 58.6909L126.278 58.9373ZM126.043 57.9996V58.8141H126.343V57.9996H126.043ZM126.024 58.0638L126.106 58.122L126.28 57.8772L126.197 57.819L126.024 58.0638ZM123.536 58.6705C124.459 58.4926 125.329 58.298 126.148 58.0866L126.073 57.7962C125.261 58.0059 124.396 58.1991 123.479 58.3759L123.536 58.6705ZM126.16 65.3434C126.646 65.4508 127.117 65.5049 127.572 65.5049V65.2049C127.141 65.2049 126.692 65.1537 126.225 65.0505L126.16 65.3434ZM126.043 59.3128V65.197H126.343V59.3128H126.043ZM127.769 58.7971C127.157 58.7971 126.607 58.9235 126.123 59.1802L126.263 59.4453C126.698 59.2145 127.199 59.0971 127.769 59.0971V58.7971ZM129.772 59.6229C129.3 59.0669 128.624 58.7971 127.769 58.7971V59.0971C128.557 59.0971 129.14 59.3425 129.544 59.8171L129.772 59.6229ZM130.465 62.0139C130.465 60.9815 130.242 60.176 129.772 59.6229L129.544 59.8171C129.949 60.2946 130.165 61.0183 130.165 62.0139H130.465ZM129.742 64.5841C130.231 63.9715 130.465 63.1077 130.465 62.0139H130.165C130.165 63.0698 129.939 63.8571 129.508 64.397L129.742 64.5841ZM127.572 65.5049C128.515 65.5049 129.247 65.2042 129.742 64.5841L129.508 64.397C129.083 64.9293 128.447 65.2049 127.572 65.2049V65.5049Z" fill="white"/>
<path fill-rule="evenodd" clip-rule="evenodd" d="M139.116 64.9019C139.869 64.1234 140.245 63.1025 140.245 61.8393C140.245 60.6646 139.898 59.7213 139.203 59.0094C138.507 58.2974 137.59 57.9414 136.452 57.9414C135.248 57.9414 134.28 58.3279 133.549 59.1008C132.819 59.8737 132.453 60.8697 132.453 62.0886C132.453 63.2743 132.802 64.2342 133.5 64.9684C134.198 65.7025 135.113 66.0696 136.247 66.0696C137.407 66.0696 138.364 65.6803 139.116 64.9019ZM134.695 64.4448C134.311 63.7938 134.12 62.9502 134.12 61.9141C134.12 60.8004 134.307 59.9693 134.682 59.4208C135.057 58.8723 135.595 58.598 136.296 58.598C137.035 58.598 137.599 58.9028 137.987 59.5122C138.376 60.1217 138.57 60.9556 138.57 62.0139C138.57 63.1386 138.385 63.9877 138.016 64.5612C137.646 65.1346 137.109 65.4214 136.402 65.4214C135.647 65.4214 135.078 65.0959 134.695 64.4448Z" fill="white"/>
<path d="M139.203 59.0094L139.095 59.1142L139.203 59.0094ZM133.549 59.1008L133.658 59.2038L133.549 59.1008ZM133.5 64.9684L133.609 64.865L133.5 64.9684ZM134.695 64.4448L134.565 64.5209L134.695 64.4448ZM134.682 59.4208L134.806 59.5055V59.5055L134.682 59.4208ZM137.987 59.5122L137.861 59.5929V59.5929L137.987 59.5122ZM138.016 64.5612L138.142 64.6424L138.016 64.5612ZM140.095 61.8393C140.095 63.0706 139.73 64.0518 139.009 64.7976L139.224 65.0061C140.008 64.1951 140.395 63.1345 140.395 61.8393H140.095ZM139.095 59.1142C139.758 59.7931 140.095 60.6962 140.095 61.8393H140.395C140.395 60.6331 140.037 59.6496 139.31 58.9046L139.095 59.1142ZM136.452 58.0914C137.556 58.0914 138.432 58.4353 139.095 59.1142L139.31 58.9046C138.582 58.1594 137.625 57.7914 136.452 57.7914V58.0914ZM133.658 59.2038C134.357 58.465 135.283 58.0914 136.452 58.0914V57.7914C135.212 57.7914 134.203 58.1908 133.44 58.9977L133.658 59.2038ZM132.603 62.0886C132.603 60.902 132.958 59.9448 133.658 59.2038L133.44 58.9977C132.679 59.8026 132.303 60.8373 132.303 62.0886H132.603ZM133.609 64.865C132.942 64.1635 132.603 63.2429 132.603 62.0886H132.303C132.303 63.3058 132.662 64.305 133.391 65.0717L133.609 64.865ZM136.247 65.9196C135.149 65.9196 134.275 65.5657 133.609 64.865L133.391 65.0717C134.121 65.8393 135.078 66.2196 136.247 66.2196V65.9196ZM139.009 64.7976C138.286 65.5446 137.37 65.9196 136.247 65.9196V66.2196C137.445 66.2196 138.441 65.8161 139.224 65.0061L139.009 64.7976ZM133.97 61.9141C133.97 62.9674 134.164 63.8398 134.565 64.5209L134.824 64.3687C134.458 63.7478 134.27 62.933 134.27 61.9141H133.97ZM134.558 59.3362C134.158 59.9214 133.97 60.7886 133.97 61.9141H134.27C134.27 60.8123 134.456 60.0173 134.806 59.5055L134.558 59.3362ZM136.296 58.448C135.549 58.448 134.963 58.7442 134.558 59.3362L134.806 59.5055C135.151 59.0004 135.641 58.748 136.296 58.748V58.448ZM138.114 59.4316C137.697 58.7778 137.085 58.448 136.296 58.448V58.748C136.985 58.748 137.5 59.0278 137.861 59.5929L138.114 59.4316ZM138.72 62.0139C138.72 60.9395 138.523 60.0739 138.114 59.4316L137.861 59.5929C138.228 60.1695 138.42 60.9717 138.42 62.0139H138.72ZM138.142 64.6424C138.534 64.0337 138.72 63.1506 138.72 62.0139H138.42C138.42 63.1266 138.237 63.9418 137.89 64.4799L138.142 64.6424ZM136.402 65.5714C137.157 65.5714 137.744 65.2605 138.142 64.6424L137.89 64.4799C137.549 65.0087 137.06 65.2714 136.402 65.2714V65.5714ZM134.565 64.5209C134.975 65.2177 135.594 65.5714 136.402 65.5714V65.2714C135.7 65.2714 135.18 64.974 134.824 64.3687L134.565 64.5209Z" fill="white"/>
<path d="M148.371 63.9334V59.4787L145.571 65.8616L145.218 65.9031L142.467 59.6449V63.6093C142.467 64.2742 142.473 64.734 142.484 64.9889C142.495 65.1385 142.563 65.2355 142.689 65.2798L143.51 65.5208L143.527 65.8616C142.859 65.8449 142.385 65.8366 142.106 65.8366C141.822 65.8366 141.312 65.8449 140.579 65.8616L140.546 65.5208L141.49 65.2382C141.616 65.1939 141.685 65.108 141.696 64.9806C141.707 64.7645 141.712 64.4016 141.712 63.8919V60.4179C141.712 59.7585 141.707 59.3014 141.696 59.0465C141.685 58.8969 141.616 58.8 141.49 58.7557L140.546 58.4731L140.521 58.1323C141.277 58.1489 141.805 58.1573 142.106 58.1573C142.511 58.1573 142.936 58.1517 143.379 58.1406L145.777 63.6675L148.182 58.1406C148.571 58.1517 148.916 58.1573 149.217 58.1573C149.638 58.1573 150.216 58.1489 150.949 58.1323L150.982 58.4731L150.038 58.7557C149.912 58.8 149.841 58.8859 149.825 59.0133C149.814 59.2294 149.808 59.5923 149.808 60.102V63.5677C149.808 64.2326 149.814 64.6925 149.825 64.9474C149.841 65.097 149.912 65.1939 150.038 65.2382L150.982 65.5208L150.999 65.8616C150.249 65.8449 149.606 65.8366 149.069 65.8366C148.582 65.8366 148.013 65.8449 147.361 65.8616L147.328 65.5208L148.15 65.2798C148.275 65.2355 148.344 65.1496 148.355 65.0222C148.366 64.8116 148.371 64.4487 148.371 63.9334Z" fill="white" stroke="white" stroke-width="0.3"/>
<path d="M57.3225 54.9905L56.7806 57.0682L56.4521 57.1181L55.9513 54.4918L56.0005 54.4336C57.2869 54.14 58.4529 53.9932 59.4984 53.9932C61.5019 53.9932 63.0032 54.424 64.0022 55.2855C65.0012 56.1471 65.5007 57.6001 65.5007 59.6447C65.5007 61.7058 64.9505 63.2904 63.8503 64.3986C62.75 65.5067 61.22 66.0608 59.2603 66.0608C58.16 66.0608 57.0461 65.8862 55.9184 65.5372L55.8691 65.479L56.2879 62.6117L56.6574 62.5452L57.2486 64.9886C57.9164 65.2324 58.6116 65.3543 59.3342 65.3543C60.7739 65.3543 61.855 64.9637 62.5776 64.1825C63.3001 63.4012 63.6806 62.0853 63.7189 60.2347H58.2175V59.4535H63.6943C63.6121 57.747 63.2016 56.5225 62.4626 55.78C61.7236 55.0376 60.6452 54.6664 59.2275 54.6664C58.6144 54.6664 57.9794 54.7744 57.3225 54.9905Z" fill="white" stroke="white" stroke-width="0.3"/>
<path d="M74.9533 64.9474C74.9642 65.097 75.0326 65.1939 75.1585 65.2382L76.111 65.5208L76.1274 65.8616C75.372 65.8449 74.7261 65.8366 74.1896 65.8366C73.6532 65.8366 73.0593 65.8449 72.4078 65.8616L72.375 65.5208L73.1961 65.2798C73.322 65.2355 73.3904 65.1496 73.4014 65.0222C73.4123 64.8116 73.4178 64.4487 73.4178 63.9334V62.1382H69.8132V63.6093C69.8132 64.2742 69.8186 64.734 69.8296 64.9889C69.8405 65.1385 69.909 65.2355 70.0349 65.2798L70.856 65.5208L70.8724 65.8616C70.2045 65.8449 69.6051 65.8366 69.0742 65.8366C68.5322 65.8366 67.8945 65.8449 67.161 65.8616L67.1199 65.5208L68.0724 65.2382C68.1983 65.1939 68.2667 65.108 68.2777 64.9806C68.2886 64.7645 68.2941 64.4016 68.2941 63.8919V60.4179C68.2941 59.7585 68.2886 59.3014 68.2777 59.0465C68.2667 58.8969 68.1983 58.8 68.0724 58.7557L67.1199 58.4731L67.1035 58.1323C67.8589 58.1489 68.5049 58.1573 69.0413 58.1573C69.5778 58.1573 70.1717 58.1489 70.8231 58.1323L70.856 58.4731L70.0349 58.7141C69.909 58.7584 69.8405 58.8443 69.8296 58.9717C69.8186 59.1878 69.8132 59.5507 69.8132 60.0605V61.4235H73.4178V60.3846C73.4178 59.7197 73.4123 59.2599 73.4014 59.005C73.3904 58.8554 73.322 58.7584 73.1961 58.7141L72.375 58.4731L72.3586 58.1323C73.0264 58.1489 73.6258 58.1573 74.1568 58.1573C74.6987 58.1573 75.3364 58.1489 76.07 58.1323L76.111 58.4731L75.1585 58.7557C75.0326 58.8 74.9642 58.8859 74.9533 59.0133C74.9423 59.2294 74.9368 59.5923 74.9368 60.102V63.5677C74.9368 64.2326 74.9423 64.6925 74.9533 64.9474Z" fill="white" stroke="white" stroke-width="0.3"/>
<path fill-rule="evenodd" clip-rule="evenodd" d="M82.8856 65.8779C83.3783 65.7505 83.8572 65.54 84.3225 65.2463L84.2733 64.8889C83.6766 64.9887 83.1155 65.0385 82.59 65.0385C81.4131 65.0385 80.5482 64.7823 79.9953 64.2698C79.4424 63.7572 79.166 62.9054 79.166 61.7141H84.3718C84.3882 61.5534 84.3964 61.3955 84.3964 61.2404C84.3964 60.2098 84.1282 59.4023 83.5917 58.8177C83.0553 58.2332 82.3054 57.9409 81.3419 57.9409C80.1924 57.9409 79.2741 58.3315 78.5871 59.1128C77.9001 59.894 77.5566 60.8996 77.5566 62.1297C77.5566 63.3652 77.9152 64.3307 78.6323 65.0261C79.3494 65.7214 80.3101 66.0691 81.5144 66.0691C81.9359 66.0691 82.3929 66.0054 82.8856 65.8779ZM82.7626 60.7749V61.0243H79.199C79.2428 60.3483 79.4371 59.7721 79.782 59.2956C80.1268 58.8191 80.625 58.5808 81.2764 58.5808C81.769 58.5808 82.1399 58.7498 82.389 59.0878C82.638 59.4258 82.7626 59.9881 82.7626 60.7749Z" fill="white"/>
<path d="M84.3225 65.2463L84.4026 65.3732L84.4843 65.3216L84.4711 65.2258L84.3225 65.2463ZM84.2733 64.8889L84.4219 64.8684L84.4008 64.7155L84.2485 64.741L84.2733 64.8889ZM79.9953 64.2698L79.8933 64.3798L79.9953 64.2698ZM79.166 61.7141V61.5641H79.016V61.7141H79.166ZM84.3718 61.7141V61.8641H84.5072L84.521 61.7294L84.3718 61.7141ZM83.5917 58.8177L83.7023 58.7163V58.7163L83.5917 58.8177ZM78.5871 59.1128L78.6998 59.2118L78.5871 59.1128ZM78.6323 65.0261L78.5279 65.1337L78.6323 65.0261ZM82.7626 61.0243V61.1743H82.9126V61.0243H82.7626ZM79.199 61.0243L79.0493 61.0146L79.039 61.1743H79.199V61.0243ZM79.782 59.2956L79.9035 59.3835V59.3835L79.782 59.2956ZM82.389 59.0878L82.5097 58.9988V58.9988L82.389 59.0878ZM84.2425 65.1195C83.7892 65.4055 83.3245 65.6095 82.848 65.7327L82.9232 66.0232C83.432 65.8915 83.9252 65.6744 84.4026 65.3732L84.2425 65.1195ZM84.1247 64.9094L84.1739 65.2668L84.4711 65.2258L84.4219 64.8684L84.1247 64.9094ZM82.59 65.1885C83.1249 65.1885 83.6943 65.1378 84.298 65.0369L84.2485 64.741C83.6588 64.8395 83.1061 64.8885 82.59 64.8885V65.1885ZM79.8933 64.3798C80.486 64.9291 81.3957 65.1885 82.59 65.1885V64.8885C81.4305 64.8885 80.6104 64.6354 80.0973 64.1598L79.8933 64.3798ZM79.016 61.7141C79.016 62.9234 79.296 63.826 79.8933 64.3798L80.0973 64.1598C79.5889 63.6885 79.316 62.8873 79.316 61.7141H79.016ZM84.3718 61.5641H79.166V61.8641H84.3718V61.5641ZM84.2464 61.2404C84.2464 61.3902 84.2385 61.543 84.2226 61.6989L84.521 61.7294C84.5379 61.5638 84.5464 61.4008 84.5464 61.2404H84.2464ZM83.4812 58.9192C83.9854 59.4685 84.2464 60.2358 84.2464 61.2404H84.5464C84.5464 60.1838 84.271 59.336 83.7023 58.7163L83.4812 58.9192ZM81.3419 58.0909C82.2731 58.0909 82.9792 58.3721 83.4812 58.9192L83.7023 58.7163C83.1314 58.0943 82.3376 57.7909 81.3419 57.7909V58.0909ZM78.6998 59.2118C79.3551 58.4666 80.2304 58.0909 81.3419 58.0909V57.7909C80.1543 57.7909 79.1931 58.1965 78.4745 59.0137L78.6998 59.2118ZM77.7066 62.1297C77.7066 60.9291 78.0411 59.9608 78.6998 59.2118L78.4745 59.0137C77.7592 59.8272 77.4066 60.8702 77.4066 62.1297H77.7066ZM78.7367 64.9184C78.0554 64.2577 77.7066 63.3349 77.7066 62.1297H77.4066C77.4066 63.3956 77.775 64.4037 78.5279 65.1337L78.7367 64.9184ZM81.5144 65.9191C80.3405 65.9191 79.4202 65.5812 78.7367 64.9184L78.5279 65.1337C79.2785 65.8616 80.2796 66.2191 81.5144 66.2191V65.9191ZM82.848 65.7327C82.3652 65.8576 81.9209 65.9191 81.5144 65.9191V66.2191C81.9508 66.2191 82.4207 66.1531 82.9232 66.0232L82.848 65.7327ZM82.9126 61.0243V60.7749H82.6126V61.0243H82.9126ZM79.199 61.1743H82.7626V60.8743H79.199V61.1743ZM79.6605 59.2076C79.2966 59.7103 79.0946 60.3148 79.0493 61.0146L79.3487 61.034C79.3909 60.3818 79.5776 59.8338 79.9035 59.3835L79.6605 59.2076ZM81.2764 58.4308C80.5829 58.4308 80.0369 58.6875 79.6605 59.2076L79.9035 59.3835C80.2168 58.9506 80.6671 58.7308 81.2764 58.7308V58.4308ZM82.5097 58.9988C82.2272 58.6155 81.8073 58.4308 81.2764 58.4308V58.7308C81.7308 58.7308 82.0526 58.8841 82.2682 59.1768L82.5097 58.9988ZM82.9126 60.7749C82.9126 59.9802 82.7883 59.3769 82.5097 58.9988L82.2682 59.1768C82.4878 59.4747 82.6126 59.9961 82.6126 60.7749H82.9126Z" fill="white"/>
<path fill-rule="evenodd" clip-rule="evenodd" d="M85.5801 58.5227L85.6211 58.8053L86.7132 59.1211C86.7351 59.7693 86.746 61.3207 86.746 63.7753V67.1578C86.746 67.9779 86.7406 68.5901 86.7296 68.9946C86.7241 69.1275 86.6557 69.2134 86.5243 69.2522L85.5801 69.5348L85.6129 69.8755C86.3464 69.8589 86.9814 69.8506 87.5179 69.8506C88.0543 69.8506 88.7495 69.8589 89.6035 69.8755L89.5789 69.5348L88.5032 69.2273C88.3664 69.194 88.2925 69.0943 88.2815 68.9281C88.2706 68.7065 88.2651 68.3186 88.2651 67.7645V65.9444C88.7194 66.0275 89.1574 66.0691 89.5789 66.0691C90.9966 66.0691 92.0914 65.6743 92.8633 64.8848C93.6351 64.0952 94.021 63.0217 94.021 61.6643C94.021 60.5617 93.7213 59.6655 93.1219 58.9756C92.5225 58.2858 91.7137 57.9409 90.6956 57.9409C89.9128 57.9409 89.1026 58.2318 88.2651 58.8136V57.9991L88.183 57.9409C87.3673 58.1515 86.4997 58.3454 85.5801 58.5227ZM89.6445 65.3544C89.2011 65.3544 88.7413 65.3018 88.2651 65.1965V59.3123C88.7249 59.0685 89.2504 58.9466 89.8416 58.9466C90.6627 58.9466 91.2922 59.2043 91.7301 59.7195C92.168 60.2348 92.387 60.9994 92.387 62.0134C92.387 63.0883 92.1571 63.9138 91.6973 64.4901C91.2374 65.0663 90.5532 65.3544 89.6445 65.3544Z" fill="white"/>
<path d="M85.6211 58.8053L85.4727 58.8268L85.4866 58.9225L85.5795 58.9494L85.6211 58.8053ZM85.5801 58.5227L85.5517 58.3754L85.411 58.4025L85.4316 58.5443L85.5801 58.5227ZM86.7132 59.1211L86.8631 59.116L86.8594 59.0072L86.7549 58.977L86.7132 59.1211ZM86.7296 68.9946L86.8795 69.0007L86.8796 68.9986L86.7296 68.9946ZM86.5243 69.2522L86.4819 69.1083L86.4813 69.1085L86.5243 69.2522ZM85.5801 69.5348L85.5371 69.3911L85.4189 69.4264L85.4308 69.5492L85.5801 69.5348ZM85.6129 69.8755L85.4636 69.8899L85.477 70.0287L85.6163 70.0255L85.6129 69.8755ZM89.6035 69.8755L89.6006 70.0255L89.7649 70.0287L89.7531 69.8647L89.6035 69.8755ZM89.5789 69.5348L89.7285 69.524L89.7209 69.4194L89.6201 69.3906L89.5789 69.5348ZM88.5032 69.2273L88.5445 69.0829L88.5386 69.0815L88.5032 69.2273ZM88.2815 68.9281L88.1317 68.9355L88.1318 68.9379L88.2815 68.9281ZM88.2651 65.9444L88.2921 65.7969L88.1151 65.7645V65.9444H88.2651ZM92.8633 64.8848L92.756 64.7799L92.8633 64.8848ZM93.1219 58.9756L93.2351 58.8773L93.1219 58.9756ZM88.2651 58.8136H88.1151V59.1004L88.3507 58.9368L88.2651 58.8136ZM88.2651 57.9991H88.4151V57.9215L88.3518 57.8767L88.2651 57.9991ZM88.183 57.9409L88.2697 57.8185L88.2129 57.7783L88.1455 57.7957L88.183 57.9409ZM88.2651 65.1965H88.1151V65.317L88.2327 65.343L88.2651 65.1965ZM88.2651 59.3123L88.1948 59.1798L88.1151 59.2221V59.3123H88.2651ZM91.7301 59.7195L91.8444 59.6224L91.7301 59.7195ZM85.7696 58.7837L85.7285 58.5011L85.4316 58.5443L85.4727 58.8268L85.7696 58.7837ZM86.7549 58.977L85.6628 58.6612L85.5795 58.9494L86.6715 59.2652L86.7549 58.977ZM86.896 63.7753C86.896 61.3216 86.8851 59.7674 86.8631 59.116L86.5633 59.1261C86.5851 59.7713 86.596 61.3199 86.596 63.7753H86.896ZM86.896 67.1578V63.7753H86.596V67.1578H86.896ZM86.8796 68.9986C86.8906 68.592 86.896 67.9781 86.896 67.1578H86.596C86.596 67.9776 86.5906 68.5882 86.5797 68.9905L86.8796 68.9986ZM86.5668 69.3961C86.6547 69.3701 86.7338 69.3246 86.7915 69.2522C86.8495 69.1794 86.8757 69.0922 86.8795 69.0007L86.5797 68.9884C86.578 69.03 86.5673 69.0521 86.5569 69.0652C86.5461 69.0787 86.5254 69.0955 86.4819 69.1084L86.5668 69.3961ZM85.6231 69.6785L86.5674 69.3959L86.4813 69.1085L85.5371 69.3911L85.6231 69.6785ZM85.7622 69.8611L85.7294 69.5204L85.4308 69.5492L85.4636 69.8899L85.7622 69.8611ZM87.5179 69.7006C86.98 69.7006 86.3438 69.7089 85.6095 69.7256L85.6163 70.0255C86.3491 70.0089 86.9829 70.0006 87.5179 70.0006V69.7006ZM89.6064 69.7256C88.752 69.7089 88.0557 69.7006 87.5179 69.7006V70.0006C88.053 70.0006 88.7471 70.0089 89.6006 70.0255L89.6064 69.7256ZM89.4292 69.5456L89.4539 69.8864L89.7531 69.8647L89.7285 69.524L89.4292 69.5456ZM88.462 69.3715L89.5376 69.679L89.6201 69.3906L88.5444 69.0831L88.462 69.3715ZM88.1318 68.9379C88.1386 69.0402 88.1656 69.1372 88.2246 69.2168C88.2853 69.2987 88.3701 69.3493 88.4678 69.373L88.5386 69.0815C88.4994 69.072 88.4789 69.0561 88.4657 69.0382C88.4508 69.0182 88.4354 68.9822 88.4312 68.9182L88.1318 68.9379ZM88.1151 67.7645C88.1151 68.3185 88.1205 68.7097 88.1317 68.9355L88.4313 68.9207C88.4206 68.7032 88.4151 68.3187 88.4151 67.7645H88.1151ZM88.1151 65.9444V67.7645H88.4151V65.9444H88.1151ZM89.5789 65.9191C89.1672 65.9191 88.7384 65.8785 88.2921 65.7969L88.2381 66.092C88.7005 66.1766 89.1475 66.2191 89.5789 66.2191V65.9191ZM92.756 64.7799C92.0198 65.533 90.9683 65.9191 89.5789 65.9191V66.2191C91.0249 66.2191 92.163 65.8157 92.9705 64.9896L92.756 64.7799ZM93.871 61.6643C93.871 62.992 93.4944 64.0245 92.756 64.7799L92.9705 64.9896C93.7758 64.1659 94.171 63.0514 94.171 61.6643H93.871ZM93.0087 59.074C93.5797 59.7312 93.871 60.59 93.871 61.6643H94.171C94.171 60.5333 93.8629 59.5997 93.2351 58.8773L93.0087 59.074ZM90.6956 58.0909C91.6758 58.0909 92.4412 58.421 93.0087 59.074L93.2351 58.8773C92.6038 58.1507 91.7516 57.7909 90.6956 57.7909V58.0909ZM88.3507 58.9368C89.1706 58.3672 89.9514 58.0909 90.6956 58.0909V57.7909C89.8741 57.7909 89.0346 58.0964 88.1795 58.6904L88.3507 58.9368ZM88.1151 57.9991V58.8136H88.4151V57.9991H88.1151ZM88.0963 58.0633L88.1784 58.1215L88.3518 57.8767L88.2697 57.8185L88.0963 58.0633ZM85.6085 58.67C86.5308 58.4922 87.4015 58.2976 88.2205 58.0862L88.1455 57.7957C87.3332 58.0054 86.4686 58.1986 85.5517 58.3754L85.6085 58.67ZM88.2327 65.343C88.7185 65.4504 89.1892 65.5044 89.6445 65.5044V65.2044C89.213 65.2044 88.7641 65.1532 88.2974 65.05L88.2327 65.343ZM88.1151 59.3123V65.1965H88.4151V59.3123H88.1151ZM89.8416 58.7966C89.2292 58.7966 88.679 58.923 88.1948 59.1798L88.3353 59.4448C88.7707 59.214 89.2715 59.0966 89.8416 59.0966V58.7966ZM91.8444 59.6224C91.3719 59.0664 90.6964 58.7966 89.8416 58.7966V59.0966C90.629 59.0966 91.2125 59.3421 91.6158 59.8167L91.8444 59.6224ZM92.537 62.0134C92.537 60.981 92.3145 60.1755 91.8444 59.6224L91.6158 59.8167C92.0216 60.2941 92.237 61.0179 92.237 62.0134H92.537ZM91.8145 64.5836C92.3033 63.971 92.537 63.1072 92.537 62.0134H92.237C92.237 63.0694 92.0108 63.8566 91.58 64.3965L91.8145 64.5836ZM89.6445 65.5044C90.5871 65.5044 91.3197 65.2038 91.8145 64.5836L91.58 64.3965C91.1552 64.9288 90.5193 65.2044 89.6445 65.2044V65.5044Z" fill="white"/>
<path d="M98.1784 63.5677C98.1784 64.2326 98.1839 64.6925 98.1948 64.9474C98.2058 65.097 98.2742 65.1939 98.4001 65.2382L99.3526 65.5208L99.369 65.8616C98.6136 65.8449 97.9704 65.8366 97.4394 65.8366C96.8975 65.8366 96.2597 65.8449 95.5262 65.8616L95.4852 65.5208L96.4377 65.2382C96.5636 65.1939 96.632 65.108 96.6429 64.9806C96.6539 64.7645 96.6593 64.4016 96.6593 63.8919V60.4262C96.6593 59.7613 96.6539 59.3014 96.6429 59.0465C96.632 58.8969 96.5636 58.8 96.4377 58.7557L95.4852 58.4731L95.4688 58.1323C96.2242 58.1489 96.8701 58.1573 97.4066 58.1573H98.9092C99.8507 58.1573 100.861 58.1489 101.939 58.1323L101.988 58.1905L101.463 60.7586L101.134 60.8085L100.584 58.8886H98.1784V63.5677Z" fill="white" stroke="white" stroke-width="0.3"/>
<path fill-rule="evenodd" clip-rule="evenodd" d="M109.628 64.9014C110.381 64.1229 110.757 63.1021 110.757 61.8388C110.757 60.6642 110.41 59.7209 109.714 59.0089C109.019 58.2969 108.102 57.9409 106.964 57.9409C105.759 57.9409 104.792 58.3274 104.061 59.1003C103.33 59.8732 102.965 60.8692 102.965 62.0881C102.965 63.2738 103.314 64.2337 104.012 64.9679C104.71 65.702 105.625 66.0691 106.758 66.0691C107.919 66.0691 108.875 65.6799 109.628 64.9014ZM105.206 64.4443C104.823 63.7933 104.631 62.9497 104.631 61.9136C104.631 60.7999 104.819 59.9688 105.194 59.4203C105.569 58.8718 106.107 58.5975 106.807 58.5975C107.546 58.5975 108.11 58.9022 108.499 59.5117C108.887 60.1212 109.082 60.9551 109.082 62.0133C109.082 63.1381 108.897 63.9872 108.527 64.5607C108.158 65.1341 107.62 65.4209 106.914 65.4209C106.159 65.4209 105.589 65.0953 105.206 64.4443Z" fill="white"/>
<path d="M109.714 59.0089L109.607 59.1137L109.714 59.0089ZM104.061 59.1003L104.17 59.2034L104.061 59.1003ZM104.012 64.9679L104.12 64.8645L104.012 64.9679ZM105.206 64.4443L105.077 64.5204L105.206 64.4443ZM105.194 59.4203L105.318 59.505L105.194 59.4203ZM108.499 59.5117L108.372 59.5924V59.5924L108.499 59.5117ZM108.527 64.5607L108.654 64.6419L108.527 64.5607ZM110.607 61.8388C110.607 63.0701 110.241 64.0513 109.52 64.7971L109.736 65.0057C110.52 64.1946 110.907 63.134 110.907 61.8388H110.607ZM109.607 59.1137C110.27 59.7926 110.607 60.6958 110.607 61.8388H110.907C110.907 60.6326 110.549 59.6491 109.822 58.9041L109.607 59.1137ZM106.964 58.0909C108.068 58.0909 108.944 58.4349 109.607 59.1137L109.822 58.9041C109.094 58.159 108.136 57.7909 106.964 57.7909V58.0909ZM104.17 59.2034C104.869 58.4645 105.795 58.0909 106.964 58.0909V57.7909C105.724 57.7909 104.715 58.1903 103.952 58.9973L104.17 59.2034ZM103.115 62.0881C103.115 60.9015 103.469 59.9443 104.17 59.2034L103.952 58.9973C103.191 59.8021 102.815 60.8369 102.815 62.0881H103.115ZM104.12 64.8645C103.454 64.163 103.115 63.2424 103.115 62.0881H102.815C102.815 63.3053 103.174 64.3045 103.903 65.0712L104.12 64.8645ZM106.758 65.9191C105.661 65.9191 104.787 65.5652 104.12 64.8645L103.903 65.0712C104.633 65.8388 105.589 66.2191 106.758 66.2191V65.9191ZM109.52 64.7971C108.798 65.5441 107.881 65.9191 106.758 65.9191V66.2191C107.956 66.2191 108.953 65.8156 109.736 65.0057L109.52 64.7971ZM104.481 61.9136C104.481 62.9669 104.676 63.8393 105.077 64.5204L105.335 64.3682C104.97 63.7473 104.781 62.9325 104.781 61.9136H104.481ZM105.07 59.3357C104.67 59.9209 104.481 60.7881 104.481 61.9136H104.781C104.781 60.8118 104.968 60.0168 105.318 59.505L105.07 59.3357ZM106.807 58.4475C106.06 58.4475 105.475 58.7437 105.07 59.3357L105.318 59.505C105.663 58.9999 106.153 58.7475 106.807 58.7475V58.4475ZM108.625 59.4311C108.208 58.7772 107.596 58.4475 106.807 58.4475V58.7475C107.496 58.7475 108.012 59.0273 108.372 59.5924L108.625 59.4311ZM109.232 62.0133C109.232 60.939 109.035 60.0734 108.625 59.4311L108.372 59.5924C108.74 60.169 108.932 60.9711 108.932 62.0133H109.232ZM108.654 64.6419C109.046 64.0332 109.232 63.1501 109.232 62.0133H108.932C108.932 63.1261 108.748 63.9412 108.401 64.4794L108.654 64.6419ZM106.914 65.5709C107.669 65.5709 108.255 65.26 108.654 64.6419L108.401 64.4794C108.061 65.0082 107.571 65.2709 106.914 65.2709V65.5709ZM105.077 64.5204C105.487 65.2172 106.105 65.5709 106.914 65.5709V65.2709C106.212 65.2709 105.692 64.9735 105.335 64.3682L105.077 64.5204Z" fill="white"/>
</g>
</svg>
