<svg width="45" height="45" viewBox="0 0 45 45" fill="none" xmlns="http://www.w3.org/2000/svg">
<path d="M5.625 22.5C5.625 28.5289 8.84136 34.0998 14.0625 37.1142C19.2836 40.1286 25.7164 40.1286 30.9375 37.1142C36.1586 34.0998 39.375 28.5289 39.375 22.5C39.375 16.4711 36.1586 10.9002 30.9375 7.88582C25.7164 4.87139 19.2836 4.87139 14.0625 7.88582C8.84136 10.9002 5.625 16.4711 5.625 22.5" stroke="#195396" stroke-width="1.5" stroke-linecap="round" stroke-linejoin="round"/>
<path d="M16.875 18.75C16.875 21.8566 19.3934 24.375 22.5 24.375C25.6066 24.375 28.125 21.8566 28.125 18.75C28.125 15.6434 25.6066 13.125 22.5 13.125C19.3934 13.125 16.875 15.6434 16.875 18.75" stroke="#195396" stroke-width="1.5" stroke-linecap="round" stroke-linejoin="round"/>
<path d="M11.5654 35.3419C12.5184 32.1702 15.4387 29.999 18.7504 30H26.2504C29.5666 29.9989 32.4899 32.1757 33.4392 35.3531" stroke="#195396" stroke-width="1.5" stroke-linecap="round" stroke-linejoin="round"/>
</svg>
