<svg width="142" height="66" viewBox="0 0 142 66" fill="none" xmlns="http://www.w3.org/2000/svg">
<path fill-rule="evenodd" clip-rule="evenodd" d="M10.6179 59.8746L7.2152 50.502L6.42585 50.6169L2.50974 59.9665C2.39734 60.2373 2.29515 60.4366 2.20319 60.5643C2.11123 60.692 1.96817 60.7865 1.77403 60.8479L1 61.0854L1.03832 61.415C1.60543 61.3996 2.11889 61.392 2.57871 61.392C3.03853 61.392 3.63118 61.3996 4.35667 61.415L4.34134 61.0701L3.62862 60.8632C3.53155 60.8325 3.45875 60.7955 3.41021 60.7521C3.36168 60.7086 3.33741 60.6435 3.33741 60.5566C3.33741 60.4596 3.36806 60.3267 3.42937 60.1581C3.49068 59.9895 3.57498 59.7622 3.68227 59.4761L4.48695 57.4299H8.18082L8.9012 59.4837C8.99827 59.7596 9.07363 59.9806 9.12728 60.1466C9.18092 60.3127 9.20775 60.4468 9.20775 60.549C9.20775 60.6409 9.18603 60.7086 9.14261 60.7521C9.09918 60.7955 9.02637 60.8351 8.92419 60.8708L8.19615 61.0854L8.2268 61.415C9.01871 61.3996 9.70588 61.392 10.2883 61.392C10.8605 61.392 11.4813 61.3996 12.1506 61.415L12.1353 61.0854L11.4149 60.8708C11.2207 60.8095 11.0713 60.7163 10.9666 60.5911C10.8618 60.4659 10.7456 60.2271 10.6179 59.8746ZM7.92792 56.7325H4.77051L6.43351 52.5098L7.92792 56.7325Z" fill="#195396"/>
<path d="M7.2152 50.502L7.4502 50.4166L7.3807 50.2252L7.17918 50.2546L7.2152 50.502ZM10.6179 59.8746L10.8529 59.7894L10.8528 59.7893L10.6179 59.8746ZM6.42585 50.6169L6.38982 50.3695L6.24989 50.3899L6.19526 50.5203L6.42585 50.6169ZM2.50974 59.9665L2.27914 59.87L2.27884 59.8707L2.50974 59.9665ZM1.77403 60.8479L1.84738 61.0869L1.84931 61.0862L1.77403 60.8479ZM1 61.0854L0.926645 60.8464L0.727628 60.9075L0.751673 61.1143L1 61.0854ZM1.03832 61.415L0.789991 61.4438L0.816411 61.6711L1.04507 61.6649L1.03832 61.415ZM4.35667 61.415L4.35139 61.6649L4.61828 61.6705L4.60642 61.4039L4.35667 61.415ZM4.34134 61.0701L4.5911 61.059L4.58314 60.88L4.41105 60.83L4.34134 61.0701ZM3.62862 60.8632L3.55332 61.1016L3.55892 61.1033L3.62862 60.8632ZM3.68227 59.4761L3.44958 59.3846L3.44819 59.3883L3.68227 59.4761ZM4.48695 57.4299V57.1799H4.31663L4.2543 57.3384L4.48695 57.4299ZM8.18082 57.4299L8.41673 57.3471L8.35807 57.1799H8.18082V57.4299ZM8.9012 59.4837L8.66529 59.5665L8.66537 59.5667L8.9012 59.4837ZM8.92419 60.8708L8.99496 61.1109L9.00678 61.1068L8.92419 60.8708ZM8.19615 61.0854L8.12547 60.8456L7.92817 60.9038L7.94722 61.1086L8.19615 61.0854ZM8.2268 61.415L7.97788 61.4381L7.99939 61.6694L8.23164 61.6649L8.2268 61.415ZM12.1506 61.415L12.1449 61.6649L12.4128 61.671L12.4003 61.4033L12.1506 61.415ZM12.1353 61.0854L12.385 61.0738L12.3767 60.8965L12.2066 60.8458L12.1353 61.0854ZM11.4149 60.8708L11.3396 61.1093L11.3435 61.1104L11.4149 60.8708ZM4.77051 56.7325L4.5379 56.6409L4.40336 56.9825H4.77051V56.7325ZM7.92792 56.7325V56.9825H8.28159L8.1636 56.6491L7.92792 56.7325ZM6.43351 52.5098L6.66919 52.4264L6.44602 51.7958L6.2009 52.4182L6.43351 52.5098ZM6.98021 50.5873L10.3829 59.9599L10.8528 59.7893L7.4502 50.4166L6.98021 50.5873ZM6.46188 50.8643L7.25123 50.7493L7.17918 50.2546L6.38982 50.3695L6.46188 50.8643ZM2.74032 60.0631L6.65644 50.7135L6.19526 50.5203L2.27915 59.87L2.74032 60.0631ZM2.40607 60.7104C2.51508 60.559 2.62602 60.3385 2.74063 60.0624L2.27884 59.8707C2.16865 60.1361 2.07522 60.3142 2.00031 60.4182L2.40607 60.7104ZM1.84931 61.0862C2.0797 61.0135 2.27448 60.8931 2.40607 60.7104L2.00031 60.4182C1.94797 60.4909 1.85664 60.5596 1.69874 60.6095L1.84931 61.0862ZM1.07335 61.3244L1.84738 61.0868L1.70067 60.6089L0.926645 60.8464L1.07335 61.3244ZM1.28664 61.3861L1.24833 61.0566L0.751673 61.1143L0.789991 61.4438L1.28664 61.3861ZM2.57871 61.142C2.11619 61.142 1.60043 61.1497 1.03156 61.1651L1.04507 61.6649C1.61043 61.6496 2.12159 61.642 2.57871 61.642V61.142ZM4.36195 61.165C3.63558 61.1497 3.04099 61.142 2.57871 61.142V61.642C3.03606 61.642 3.62678 61.6496 4.35139 61.6649L4.36195 61.165ZM4.09159 61.0812L4.10692 61.4261L4.60642 61.4039L4.5911 61.059L4.09159 61.0812ZM3.55892 61.1033L4.27164 61.3102L4.41105 60.83L3.69833 60.6231L3.55892 61.1033ZM3.24351 60.9384C3.32917 61.015 3.43949 61.0656 3.55334 61.1016L3.70391 60.6248C3.62361 60.5994 3.58833 60.576 3.57691 60.5657L3.24351 60.9384ZM3.08741 60.5566C3.08741 60.6897 3.12585 60.8331 3.24351 60.9384L3.57691 60.5657C3.58039 60.5689 3.58351 60.5725 3.586 60.5762C3.58844 60.5798 3.58956 60.5825 3.58988 60.5834C3.59038 60.5847 3.58741 60.5774 3.58741 60.5566H3.08741ZM3.19442 60.0727C3.13012 60.2495 3.08741 60.4153 3.08741 60.5566H3.58741C3.58741 60.5038 3.60601 60.4039 3.66432 60.2436L3.19442 60.0727ZM3.44819 59.3883C3.34078 59.6747 3.25615 59.903 3.19442 60.0727L3.66432 60.2436C3.72521 60.0761 3.80918 59.8496 3.91635 59.5638L3.44819 59.3883ZM4.2543 57.3384L3.44961 59.3846L3.91493 59.5676L4.71961 57.5214L4.2543 57.3384ZM8.18082 57.1799H4.48695V57.6799H8.18082V57.1799ZM9.13711 59.401L8.41673 57.3471L7.94491 57.5126L8.66529 59.5665L9.13711 59.401ZM9.36517 60.0698C9.31057 59.9008 9.23441 59.6775 9.13703 59.4008L8.66537 59.5667C8.76214 59.8417 8.8367 60.0604 8.88939 60.2235L9.36517 60.0698ZM9.45775 60.549C9.45775 60.4086 9.42201 60.2457 9.36517 60.0698L8.88939 60.2235C8.93984 60.3796 8.95775 60.485 8.95775 60.549H9.45775ZM9.31938 60.9288C9.42859 60.8196 9.45775 60.6746 9.45775 60.549H8.95775C8.95775 60.5762 8.95442 60.5892 8.95341 60.5924C8.95278 60.5943 8.95529 60.5858 8.96583 60.5753L9.31938 60.9288ZM9.00678 61.1068C9.12132 61.0667 9.2363 61.0119 9.31938 60.9288L8.96583 60.5753C8.96613 60.575 8.9643 60.5768 8.95922 60.5805C8.95416 60.5841 8.94663 60.5889 8.93599 60.5947C8.91436 60.6065 8.88361 60.6202 8.84161 60.6349L9.00678 61.1068ZM8.26683 61.3252L8.99487 61.1106L8.85352 60.631L8.12547 60.8456L8.26683 61.3252ZM8.47573 61.3918L8.44507 61.0623L7.94722 61.1086L7.97788 61.4381L8.47573 61.3918ZM10.2883 61.142C9.70382 61.142 9.01496 61.1497 8.22196 61.165L8.23164 61.6649C9.02247 61.6496 9.70795 61.642 10.2883 61.642V61.142ZM12.1563 61.165C11.4854 61.1497 10.8627 61.142 10.2883 61.142V61.642C10.8583 61.642 11.4772 61.6496 12.1449 61.6649L12.1563 61.165ZM11.8855 61.097L11.9009 61.4266L12.4003 61.4033L12.385 61.0738L11.8855 61.097ZM11.3435 61.1104L12.0639 61.325L12.2066 60.8458L11.4862 60.6312L11.3435 61.1104ZM10.7748 60.7516C10.9169 60.9214 11.1112 61.0371 11.3396 61.1092L11.4902 60.6324C11.3302 60.5819 11.2257 60.5112 11.1583 60.4307L10.7748 60.7516ZM10.3828 59.9597C10.5109 60.3133 10.6393 60.5896 10.7748 60.7516L11.1583 60.4307C11.0843 60.3423 10.9802 60.1409 10.8529 59.7894L10.3828 59.9597ZM4.77051 56.9825H7.92792V56.4825H4.77051V56.9825ZM6.2009 52.4182L4.5379 56.6409L5.00312 56.8241L6.66612 52.6014L6.2009 52.4182ZM8.1636 56.6491L6.66919 52.4264L6.19784 52.5932L7.69225 56.8159L8.1636 56.6491Z" fill="#195396"/>
<path d="M18.7169 56.1039V59.2996C18.7169 59.6062 18.7182 59.8654 18.7208 60.0775C18.7233 60.2895 18.7272 60.4543 18.7323 60.5718C18.7425 60.7097 18.8089 60.7991 18.9315 60.84L19.8128 61.1006L19.8282 61.4148C19.1282 61.3994 18.5279 61.3918 18.0272 61.3918C17.5163 61.3918 16.962 61.3994 16.3642 61.4148L16.3335 61.1006L17.0922 60.8783C17.2149 60.8323 17.2787 60.7531 17.2838 60.6407C17.2941 60.5386 17.3004 60.4057 17.303 60.2422C17.3056 60.0787 17.3068 59.8769 17.3068 59.6368V54.985H15.4982C15.4522 56.0937 15.3207 57.1244 15.1035 58.0773C14.8864 59.0301 14.5837 59.9255 14.1954 60.7634C14.1341 60.9064 14.0651 61.0239 13.9885 61.1159C13.9118 61.2079 13.8212 61.2794 13.7164 61.3305C13.6117 61.3816 13.4891 61.4161 13.3486 61.4339C13.2081 61.4518 13.0356 61.4608 12.8313 61.4608C12.5043 61.4608 12.1186 61.4275 11.6741 61.3611L11.6357 61.0699C11.881 61.0393 12.0956 60.9856 12.2795 60.909C12.4634 60.8323 12.6116 60.7583 12.724 60.6867C12.9897 60.513 13.2362 60.2576 13.4635 59.9204C13.6909 59.5832 13.8927 59.1757 14.0689 58.698C14.2452 58.2203 14.3921 57.6826 14.5096 57.0848C14.6271 56.4871 14.7089 55.8408 14.7548 55.1459C14.7599 55.0131 14.6884 54.9262 14.5403 54.8854L13.5746 54.6018L13.5593 54.2876C14.2899 54.3029 14.9158 54.3106 15.4369 54.3106H17.9736C18.4947 54.3106 19.0976 54.3029 19.7822 54.2876L19.8128 54.6018L18.9315 54.8624C18.814 54.9032 18.7476 54.9824 18.7323 55.0999C18.7272 55.2021 18.7233 55.335 18.7208 55.4985C18.7182 55.6619 18.7169 55.8638 18.7169 56.1039Z" fill="#195396" stroke="#195396" stroke-width="0.5"/>
<path fill-rule="evenodd" clip-rule="evenodd" d="M22.8151 57.2074V56.1039C22.8151 55.874 22.8164 55.6785 22.819 55.5176C22.8215 55.3567 22.8253 55.2251 22.8305 55.1229C22.8407 55.0054 22.9045 54.9288 23.022 54.893L23.9877 54.6018L23.957 54.2876C23.2162 54.3029 22.5954 54.3106 22.0947 54.3106C21.5889 54.3106 20.9861 54.3029 20.2861 54.2876L20.3015 54.6018L21.1904 54.8624C21.308 54.9084 21.3718 54.9978 21.382 55.1306C21.3871 55.2379 21.391 55.3937 21.3935 55.5981C21.3961 55.8024 21.3974 56.0579 21.3974 56.3644V59.5985C21.3974 59.8386 21.3961 60.0404 21.3935 60.2039C21.391 60.3674 21.3871 60.5002 21.382 60.6024C21.3718 60.7199 21.308 60.7991 21.1904 60.84L20.3015 61.1006L20.3398 61.4148C21.0193 61.3994 21.5941 61.3918 22.0641 61.3918C22.386 61.3918 22.6734 61.3994 22.9263 61.4148C23.1792 61.4301 23.418 61.4378 23.6428 61.4378C24.7055 61.4378 25.5217 61.2411 26.0913 60.8477C26.661 60.4543 26.9458 59.8974 26.9458 59.177C26.9458 58.5179 26.6814 58.0172 26.1526 57.6749C25.6239 57.3326 24.846 57.1615 23.8191 57.1615C23.5023 57.1615 23.1677 57.1768 22.8151 57.2074ZM22.8151 60.7787V57.7439C23.0348 57.7183 23.2494 57.7056 23.4589 57.7056C24.1231 57.7056 24.6097 57.8371 24.9188 58.1003C25.2279 58.3634 25.3824 58.7453 25.3824 59.246C25.3824 59.7671 25.2215 60.1643 24.8996 60.4377C24.5778 60.711 24.1256 60.8477 23.5432 60.8477C23.2009 60.8477 22.9582 60.8247 22.8151 60.7787Z" fill="#195396"/>
<path d="M22.8151 57.2074H22.5651V57.4801L22.8368 57.4565L22.8151 57.2074ZM22.8305 55.1229L22.5812 55.1013L22.5808 55.1104L22.8305 55.1229ZM23.022 54.893L22.9499 54.6537L22.9493 54.6539L23.022 54.893ZM23.9877 54.6018L24.0599 54.8412L24.2564 54.7819L24.2365 54.5775L23.9877 54.6018ZM23.957 54.2876L24.2058 54.2633L24.1833 54.0329L23.9518 54.0377L23.957 54.2876ZM20.2861 54.2876L20.2916 54.0377L20.0234 54.0318L20.0364 54.2998L20.2861 54.2876ZM20.3015 54.6018L20.0518 54.614L20.0604 54.7917L20.2311 54.8417L20.3015 54.6018ZM21.1904 54.8624L21.2815 54.6296L21.2713 54.6256L21.2608 54.6225L21.1904 54.8624ZM21.382 55.1306L21.6319 55.1187L21.6313 55.1114L21.382 55.1306ZM21.382 60.6024L21.6313 60.6241L21.6317 60.6149L21.382 60.6024ZM21.1904 60.84L21.2608 61.0802L21.2726 61.0761L21.1904 60.84ZM20.3015 61.1006L20.2311 60.8607L20.0276 60.9203L20.0533 61.1308L20.3015 61.1006ZM20.3398 61.4148L20.0916 61.445L20.119 61.6698L20.3454 61.6647L20.3398 61.4148ZM22.8151 57.7439L22.7863 57.4956L22.5651 57.5213V57.7439H22.8151ZM22.8151 60.7787H22.5651V60.9609L22.7386 61.0167L22.8151 60.7787ZM24.8996 60.4377L24.7378 60.2471L24.8996 60.4377ZM22.5651 56.1039V57.2074H23.0651V56.1039H22.5651ZM22.569 55.5136C22.5664 55.6763 22.5651 55.8732 22.5651 56.1039H23.0651C23.0651 55.8748 23.0664 55.6808 23.0689 55.5216L22.569 55.5136ZM22.5808 55.1104C22.5755 55.2166 22.5716 55.3513 22.569 55.5136L23.0689 55.5216C23.0715 55.3621 23.0752 55.2336 23.0801 55.1354L22.5808 55.1104ZM22.9493 54.6539C22.8547 54.6826 22.7636 54.7337 22.694 54.8173C22.6237 54.9016 22.5901 55.0012 22.5814 55.1013L23.0795 55.1446C23.0799 55.1399 23.0805 55.1366 23.081 55.1346C23.0812 55.1335 23.0814 55.1328 23.0815 55.1323C23.0817 55.1318 23.0818 55.1316 23.0818 55.1316C23.0818 55.1316 23.0817 55.1318 23.0815 55.1321C23.0813 55.1325 23.0811 55.133 23.0808 55.1336C23.0801 55.1348 23.0791 55.1361 23.0781 55.1374C23.0757 55.1402 23.0742 55.1409 23.0757 55.14C23.0774 55.1389 23.0831 55.1358 23.0948 55.1322L22.9493 54.6539ZM23.9155 54.3625L22.9499 54.6537L23.0942 55.1324L24.0599 54.8412L23.9155 54.3625ZM23.7082 54.3119L23.7388 54.6261L24.2365 54.5775L24.2058 54.2633L23.7082 54.3119ZM22.0947 54.5606C22.5978 54.5606 23.2204 54.5529 23.9622 54.5375L23.9518 54.0377C23.212 54.053 22.5931 54.0606 22.0947 54.0606V54.5606ZM20.2807 54.5375C20.9818 54.5529 21.5866 54.5606 22.0947 54.5606V54.0606C21.5913 54.0606 20.9904 54.053 20.2916 54.0377L20.2807 54.5375ZM20.5512 54.5896L20.5358 54.2754L20.0364 54.2998L20.0518 54.614L20.5512 54.5896ZM21.2608 54.6225L20.3718 54.3619L20.2311 54.8417L21.1201 55.1023L21.2608 54.6225ZM21.6313 55.1114C21.6234 55.0092 21.5934 54.9076 21.5299 54.8186C21.4658 54.7289 21.3786 54.6675 21.2815 54.6296L21.0993 55.0952C21.1102 55.0994 21.1162 55.1032 21.119 55.1053C21.1216 55.1073 21.1225 55.1085 21.123 55.1092C21.1234 55.1097 21.1304 55.1191 21.1328 55.1498L21.6313 55.1114ZM21.6435 55.595C21.6409 55.3898 21.6371 55.2305 21.6317 55.1187L21.1323 55.1425C21.1372 55.2453 21.141 55.3977 21.1435 55.6012L21.6435 55.595ZM21.6474 56.3644C21.6474 56.0573 21.6461 55.8007 21.6435 55.595L21.1435 55.6012C21.1461 55.8042 21.1474 56.0585 21.1474 56.3644H21.6474ZM21.6474 59.5985V56.3644H21.1474V59.5985H21.6474ZM21.6435 60.2078C21.6461 60.0426 21.6474 59.8394 21.6474 59.5985H21.1474C21.1474 59.8379 21.1461 60.0383 21.1436 60.2L21.6435 60.2078ZM21.6317 60.6149C21.637 60.5087 21.6409 60.3727 21.6435 60.2078L21.1436 60.2C21.141 60.3621 21.1373 60.4918 21.1323 60.5899L21.6317 60.6149ZM21.2726 61.0761C21.3656 61.0438 21.4539 60.9902 21.5211 60.9069C21.5889 60.8227 21.6224 60.7242 21.6311 60.6241L21.133 60.5808C21.1322 60.5901 21.1307 60.5945 21.1304 60.5953C21.1302 60.5958 21.1306 60.5946 21.1319 60.593C21.1331 60.5915 21.1333 60.5919 21.1305 60.5937C21.1275 60.5957 21.1208 60.5995 21.1083 60.6039L21.2726 61.0761ZM20.3718 61.3405L21.2608 61.0799L21.1201 60.6001L20.2311 60.8607L20.3718 61.3405ZM20.5879 61.3845L20.5496 61.0703L20.0533 61.1308L20.0916 61.445L20.5879 61.3845ZM22.0641 61.1418C21.5916 61.1418 21.0148 61.1495 20.3341 61.1648L20.3454 61.6647C21.0238 61.6494 21.5966 61.6418 22.0641 61.6418V61.1418ZM22.9414 61.1652C22.6823 61.1495 22.3897 61.1418 22.0641 61.1418V61.6418C22.3822 61.6418 22.6644 61.6494 22.9111 61.6643L22.9414 61.1652ZM23.6428 61.1878C23.4236 61.1878 23.1899 61.1803 22.9414 61.1652L22.9111 61.6643C23.1684 61.6799 23.4124 61.6878 23.6428 61.6878V61.1878ZM25.9493 60.642C25.4382 60.9949 24.6801 61.1878 23.6428 61.1878V61.6878C24.7309 61.6878 25.6051 61.4873 26.2334 61.0534L25.9493 60.642ZM26.6958 59.177C26.6958 59.8192 26.4481 60.2974 25.9493 60.642L26.2334 61.0534C26.8738 60.6111 27.1958 59.9755 27.1958 59.177H26.6958ZM26.0168 57.8848C26.4705 58.1785 26.6958 58.598 26.6958 59.177H27.1958C27.1958 58.4379 26.8923 57.8559 26.2885 57.4651L26.0168 57.8848ZM23.8191 57.4115C24.8253 57.4115 25.5466 57.5804 26.0168 57.8848L26.2885 57.4651C25.7011 57.0848 24.8667 56.9115 23.8191 56.9115V57.4115ZM22.8368 57.4565C23.1829 57.4264 23.5103 57.4115 23.8191 57.4115V56.9115C23.4943 56.9115 23.1524 56.9272 22.7935 56.9584L22.8368 57.4565ZM22.5651 57.7439V60.7787H23.0651V57.7439H22.5651ZM23.4589 57.4556C23.2392 57.4556 23.015 57.469 22.7863 57.4956L22.844 57.9922C23.0546 57.9677 23.2596 57.9556 23.4589 57.9556V57.4556ZM25.0808 57.9099C24.7055 57.5904 24.1472 57.4556 23.4589 57.4556V57.9556C24.0989 57.9556 24.5139 58.0839 24.7567 58.2906L25.0808 57.9099ZM25.6324 59.246C25.6324 58.6906 25.4585 58.2314 25.0808 57.9099L24.7567 58.2906C24.9973 58.4954 25.1324 58.7999 25.1324 59.246H25.6324ZM25.0615 60.6282C25.4521 60.2965 25.6324 59.8218 25.6324 59.246H25.1324C25.1324 59.7124 24.9909 60.0322 24.7378 60.2471L25.0615 60.6282ZM23.5432 61.0977C24.1625 61.0977 24.6798 60.9523 25.0615 60.6282L24.7378 60.2471C24.4757 60.4697 24.0887 60.5977 23.5432 60.5977V61.0977ZM22.7386 61.0167C22.9222 61.0757 23.1995 61.0977 23.5432 61.0977V60.5977C23.2022 60.5977 22.9942 60.5736 22.8916 60.5407L22.7386 61.0167Z" fill="#195396"/>
<path fill-rule="evenodd" clip-rule="evenodd" d="M30.9443 58.3418H31.8256V59.8439C31.8256 60.0892 31.8243 60.2705 31.8217 60.388C31.8192 60.5055 31.8154 60.5898 31.8102 60.6409C31.8051 60.7533 31.7413 60.8325 31.6187 60.8785L30.8523 61.1008L30.8906 61.415C31.4884 61.3996 32.0376 61.392 32.5383 61.392C33.0339 61.392 33.6342 61.3996 34.3392 61.415L34.3239 61.1008L33.4349 60.8402C33.3123 60.7993 33.2485 60.7099 33.2433 60.572C33.2331 60.2807 33.228 59.8567 33.228 59.2998V56.1041C33.228 55.8639 33.2293 55.6621 33.2318 55.4986C33.2344 55.3352 33.2382 55.2023 33.2433 55.1001C33.2485 54.9877 33.3123 54.9085 33.4349 54.8626L34.3239 54.602L34.2933 54.2878C33.6035 54.3031 33.0083 54.3108 32.5076 54.3108C32.1653 54.3108 31.8537 54.3044 31.5727 54.2916C31.2917 54.2788 30.9928 54.2725 30.676 54.2725C29.7973 54.2725 29.0935 54.4487 28.5647 54.8013C28.0359 55.1538 27.7715 55.6494 27.7715 56.288C27.7715 57.1974 28.2977 57.8156 29.3502 58.1426C29.2174 58.347 29.0922 58.5577 28.9747 58.7748C28.8572 58.992 28.7346 59.2078 28.6068 59.4224C28.4536 59.6932 28.3016 59.9423 28.1509 60.1696C28.0001 60.397 27.8533 60.5796 27.7102 60.7176C27.5876 60.8402 27.4509 60.927 27.3002 60.9781C27.1495 61.0292 26.9719 61.0752 26.7676 61.1161L26.7906 61.4073C27.0409 61.4431 27.327 61.4609 27.6489 61.4609C27.8073 61.4609 27.9439 61.4571 28.0589 61.4495C28.1739 61.4418 28.2773 61.429 28.3693 61.4111C28.4612 61.3932 28.543 61.3677 28.6145 61.3345C28.686 61.3013 28.7601 61.2617 28.8368 61.2157C28.9849 61.1135 29.1305 60.959 29.2736 60.7521C29.4166 60.5451 29.5571 60.314 29.6951 60.0585C29.8177 59.8337 29.9416 59.6063 30.0668 59.3764C30.1919 59.1465 30.3235 58.9217 30.4614 58.702C30.4972 58.6458 30.5304 58.596 30.5611 58.5526C30.5917 58.5092 30.6237 58.4721 30.6569 58.4415C30.6901 58.4108 30.7297 58.3878 30.7757 58.3725C30.8216 58.3572 30.8778 58.347 30.9443 58.3418ZM31.4309 54.897C31.551 54.9047 31.6825 54.9137 31.8256 54.9239V57.836H31.1895C30.5304 57.836 30.0514 57.7096 29.7526 57.4567C29.4537 57.2038 29.3042 56.8347 29.3042 56.3493C29.3042 55.3735 29.9071 54.8856 31.1129 54.8856C31.2048 54.8856 31.3108 54.8894 31.4309 54.897Z" fill="#195396"/>
<path d="M31.8256 58.3418H32.0756V58.0918H31.8256V58.3418ZM30.9443 58.3418V58.0918H30.9347L30.9251 58.0926L30.9443 58.3418ZM31.8102 60.6409L31.5611 60.616L31.5605 60.6296L31.8102 60.6409ZM31.6187 60.8785L31.6883 61.1186L31.6975 61.116L31.7064 61.1126L31.6187 60.8785ZM30.8523 61.1008L30.7827 60.8606L30.5784 60.9199L30.6041 61.131L30.8523 61.1008ZM30.8906 61.415L30.6424 61.4452L30.6699 61.6707L30.897 61.6649L30.8906 61.415ZM34.3392 61.415L34.3338 61.6649L34.602 61.6707L34.5889 61.4028L34.3392 61.415ZM34.3239 61.1008L34.5736 61.0886L34.565 60.9109L34.3942 60.8608L34.3239 61.1008ZM33.4349 60.8402L33.3558 61.0775L33.3646 61.0801L33.4349 60.8402ZM33.2433 60.572L32.9935 60.5807L32.9935 60.5812L33.2433 60.572ZM33.2433 55.1001L33.493 55.1126L33.4931 55.1115L33.2433 55.1001ZM33.4349 54.8626L33.3646 54.6227L33.3558 54.6252L33.3472 54.6285L33.4349 54.8626ZM34.3239 54.602L34.3942 54.8419L34.5928 54.7837L34.5727 54.5777L34.3239 54.602ZM34.2933 54.2878L34.5421 54.2635L34.5196 54.0327L34.2877 54.0378L34.2933 54.2878ZM28.5647 54.8013L28.7034 55.0093L28.5647 54.8013ZM29.3502 58.1426L29.5598 58.2788L29.7399 58.0019L29.4244 57.9039L29.3502 58.1426ZM28.6068 59.4224L28.392 59.2945L28.3893 59.2993L28.6068 59.4224ZM27.7102 60.7176L27.5366 60.5376L27.5334 60.5408L27.7102 60.7176ZM26.7676 61.1161L26.7185 60.8709L26.5009 60.9145L26.5184 61.1358L26.7676 61.1161ZM26.7906 61.4073L26.5413 61.427L26.5571 61.6265L26.7552 61.6548L26.7906 61.4073ZM28.8368 61.2157L28.9654 61.4301L28.9722 61.426L28.9787 61.4215L28.8368 61.2157ZM29.6951 60.0585L29.4756 59.9388L29.4751 59.9397L29.6951 60.0585ZM30.4614 58.702L30.2505 58.5678L30.2497 58.5691L30.4614 58.702ZM31.8256 54.9239H32.0756V54.6911L31.8434 54.6745L31.8256 54.9239ZM31.4309 54.897L31.415 55.1465L31.4309 54.897ZM31.8256 57.836V58.086H32.0756V57.836H31.8256ZM29.7526 57.4567L29.914 57.2659L29.914 57.2659L29.7526 57.4567ZM31.8256 58.0918H30.9443V58.5918H31.8256V58.0918ZM32.0756 59.8439V58.3418H31.5756V59.8439H32.0756ZM32.0717 60.3935C32.0743 60.2731 32.0756 60.0895 32.0756 59.8439H31.5756C31.5756 60.0888 31.5743 60.268 31.5718 60.3826L32.0717 60.3935ZM32.059 60.6658C32.0652 60.6042 32.0691 60.5114 32.0717 60.3935L31.5718 60.3826C31.5693 60.4997 31.5655 60.5755 31.5615 60.6161L32.059 60.6658ZM31.7064 61.1126C31.7978 61.0783 31.8861 61.0246 31.9531 60.9416C32.022 60.8562 32.0553 60.7557 32.06 60.6523L31.5605 60.6296C31.5602 60.6353 31.5595 60.6363 31.5602 60.6343C31.561 60.6321 31.5624 60.6296 31.5639 60.6277C31.567 60.6238 31.5621 60.6327 31.5309 60.6444L31.7064 61.1126ZM30.9219 61.3409L31.6883 61.1186L31.549 60.6384L30.7827 60.8606L30.9219 61.3409ZM31.1388 61.3847L31.1005 61.0705L30.6041 61.131L30.6424 61.4452L31.1388 61.3847ZM32.5383 61.142C32.0351 61.142 31.4837 61.1497 30.8842 61.165L30.897 61.6649C31.493 61.6496 32.0401 61.642 32.5383 61.642V61.142ZM34.3447 61.165C33.6385 61.1497 33.0363 61.142 32.5383 61.142V61.642C33.0315 61.642 33.6299 61.6496 34.3338 61.6649L34.3447 61.165ZM34.0742 61.1129L34.0895 61.4271L34.5889 61.4028L34.5736 61.0886L34.0742 61.1129ZM33.3646 61.0801L34.2536 61.3407L34.3942 60.8608L33.5053 60.6003L33.3646 61.0801ZM32.9935 60.5812C32.9974 60.6866 33.0248 60.7941 33.0916 60.8878C33.1594 60.9827 33.2536 61.0433 33.3559 61.0774L33.514 60.603C33.5031 60.5994 33.4983 60.5963 33.4972 60.5955C33.4964 60.5949 33.4974 60.5955 33.4985 60.5972C33.5015 60.6014 33.4944 60.5953 33.4932 60.5627L32.9935 60.5812ZM32.978 59.2998C32.978 59.8575 32.9831 60.285 32.9935 60.5807L33.4932 60.5632C33.4831 60.2764 33.478 59.8559 33.478 59.2998H32.978ZM32.978 56.1041V59.2998H33.478V56.1041H32.978ZM32.9819 55.4947C32.9793 55.66 32.978 55.8632 32.978 56.1041H33.478C33.478 55.8647 33.4793 55.6643 33.4818 55.5025L32.9819 55.4947ZM32.9937 55.0876C32.9883 55.1939 32.9845 55.3299 32.9819 55.4947L33.4818 55.5025C33.4844 55.3404 33.4881 55.2108 33.493 55.1126L32.9937 55.0876ZM33.3472 54.6285C33.2558 54.6627 33.1674 54.7165 33.1005 54.7995C33.0316 54.8849 32.9983 54.9853 32.9936 55.0888L33.4931 55.1115C33.4933 55.1058 33.4941 55.1048 33.4934 55.1067C33.4926 55.1089 33.4912 55.1115 33.4897 55.1134C33.4866 55.1172 33.4915 55.1084 33.5227 55.0966L33.3472 54.6285ZM34.2536 54.3621L33.3646 54.6227L33.5053 55.1025L34.3942 54.8419L34.2536 54.3621ZM34.0444 54.3121L34.0751 54.6263L34.5727 54.5777L34.5421 54.2635L34.0444 54.3121ZM32.5076 54.5608C33.0107 54.5608 33.6079 54.5531 34.2988 54.5377L34.2877 54.0378C33.5992 54.0532 33.0059 54.0608 32.5076 54.0608V54.5608ZM31.5613 54.5414C31.8468 54.5543 32.1623 54.5608 32.5076 54.5608V54.0608C32.1683 54.0608 31.8605 54.0544 31.584 54.0419L31.5613 54.5414ZM30.676 54.5225C30.9895 54.5225 31.2845 54.5288 31.5613 54.5414L31.584 54.0419C31.2988 54.0289 30.9961 54.0225 30.676 54.0225V54.5225ZM28.7034 55.0093C29.1782 54.6927 29.8283 54.5225 30.676 54.5225V54.0225C29.7662 54.0225 29.0088 54.2047 28.426 54.5932L28.7034 55.0093ZM28.0215 56.288C28.0215 55.7325 28.2445 55.3152 28.7034 55.0093L28.426 54.5932C27.8273 54.9924 27.5215 55.5663 27.5215 56.288H28.0215ZM29.4244 57.9039C28.9277 57.7495 28.5799 57.534 28.3566 57.2717C28.1366 57.0133 28.0215 56.6909 28.0215 56.288H27.5215C27.5215 56.7945 27.6695 57.236 27.9758 57.5958C28.2788 57.9516 28.7203 58.2087 29.276 58.3813L29.4244 57.9039ZM29.1946 58.8938C29.3089 58.6825 29.4307 58.4775 29.5598 58.2788L29.1406 58.0063C29.0041 58.2164 28.8755 58.4329 28.7548 58.6559L29.1946 58.8938ZM28.8217 59.5503C28.9511 59.3328 29.0754 59.114 29.1946 58.8938L28.7548 58.6559C28.639 58.87 28.518 59.0829 28.392 59.2945L28.8217 59.5503ZM28.3592 60.3078C28.5136 60.0749 28.6686 59.8208 28.8244 59.5456L28.3893 59.2993C28.2385 59.5656 28.0896 59.8096 27.9425 60.0315L28.3592 60.3078ZM27.8837 60.8975C28.0437 60.7433 28.2019 60.5451 28.3592 60.3078L27.9425 60.0315C27.7984 60.2489 27.6628 60.416 27.5367 60.5376L27.8837 60.8975ZM27.3805 61.2149C27.5707 61.1504 27.7397 61.0416 27.887 60.8944L27.5334 60.5408C27.4355 60.6387 27.3311 60.7037 27.2199 60.7414L27.3805 61.2149ZM26.8166 61.3612C27.0285 61.3188 27.217 61.2703 27.3805 61.2149L27.2199 60.7414C27.082 60.7881 26.9154 60.8316 26.7185 60.8709L26.8166 61.3612ZM27.0398 61.3876L27.0168 61.0964L26.5184 61.1358L26.5413 61.427L27.0398 61.3876ZM27.6489 61.2109C27.3358 61.2109 27.0619 61.1935 26.8259 61.1598L26.7552 61.6548C27.0199 61.6926 27.3182 61.7109 27.6489 61.7109V61.2109ZM28.0423 61.2C27.9345 61.2072 27.8036 61.2109 27.6489 61.2109V61.7109C27.8109 61.7109 27.9534 61.707 28.0755 61.6989L28.0423 61.2ZM28.3216 61.1657C28.2419 61.1812 28.1491 61.1929 28.0423 61.2L28.0755 61.6989C28.1987 61.6907 28.3127 61.6768 28.417 61.6565L28.3216 61.1657ZM28.5092 61.1077C28.4591 61.131 28.3973 61.151 28.3216 61.1657L28.417 61.6565C28.5252 61.6355 28.6268 61.6044 28.7198 61.5612L28.5092 61.1077ZM28.7081 61.0013C28.6381 61.0434 28.5718 61.0787 28.5092 61.1077L28.7198 61.5612C28.8003 61.5239 28.8822 61.48 28.9654 61.4301L28.7081 61.0013ZM29.0679 60.6099C28.9358 60.8011 28.8103 60.9303 28.6948 61.0099L28.9787 61.4215C29.1595 61.2968 29.3253 61.1169 29.4792 60.8942L29.0679 60.6099ZM29.4751 59.9397C29.3409 60.1883 29.2051 60.4115 29.0679 60.6099L29.4792 60.8942C29.6282 60.6787 29.7734 60.4396 29.9151 60.1773L29.4751 59.9397ZM29.8472 59.2569C29.7221 59.4867 29.5982 59.714 29.4756 59.9388L29.9146 60.1782C30.0372 59.9534 30.1611 59.7259 30.2863 59.496L29.8472 59.2569ZM30.2497 58.5691C30.109 58.7932 29.9748 59.0225 29.8472 59.2569L30.2863 59.496C30.4091 59.2706 30.538 59.0502 30.6732 58.835L30.2497 58.5691ZM30.3568 58.4084C30.3234 58.4558 30.2879 58.509 30.2505 58.5678L30.6724 58.8363C30.7065 58.7826 30.7375 58.7362 30.7653 58.6968L30.3568 58.4084ZM30.4873 58.2578C30.4392 58.3022 30.3959 58.3531 30.3568 58.4084L30.7653 58.6968C30.7876 58.6653 30.8082 58.642 30.8264 58.6252L30.4873 58.2578ZM30.6966 58.1353C30.6195 58.161 30.5484 58.2014 30.4873 58.2578L30.8264 58.6252C30.8318 58.6203 30.8399 58.6146 30.8547 58.6097L30.6966 58.1353ZM30.9251 58.0926C30.8453 58.0987 30.7677 58.1116 30.6966 58.1353L30.8547 58.6097C30.8756 58.6027 30.9104 58.5952 30.9634 58.5911L30.9251 58.0926ZM31.8434 54.6745C31.6998 54.6642 31.5676 54.6553 31.4468 54.6476L31.415 55.1465C31.5343 55.1542 31.6652 55.1631 31.8078 55.1732L31.8434 54.6745ZM32.0756 57.836V54.9239H31.5756V57.836H32.0756ZM31.1895 58.086H31.8256V57.586H31.1895V58.086ZM29.5911 57.6475C29.9571 57.9572 30.5085 58.086 31.1895 58.086V57.586C30.5524 57.586 30.1458 57.462 29.914 57.2659L29.5911 57.6475ZM29.0542 56.3493C29.0542 56.889 29.2229 57.336 29.5911 57.6475L29.914 57.2659C29.6845 57.0716 29.5542 56.7803 29.5542 56.3493H29.0542ZM31.1129 54.6356C30.4828 54.6356 29.9638 54.762 29.5991 55.0572C29.2243 55.3605 29.0542 55.8072 29.0542 56.3493H29.5542C29.5542 55.9156 29.6856 55.6304 29.9137 55.4458C30.1518 55.2531 30.5372 55.1356 31.1129 55.1356V54.6356ZM31.4468 54.6476C31.323 54.6396 31.2115 54.6356 31.1129 54.6356V55.1356C31.1982 55.1356 31.2987 55.1391 31.415 55.1465L31.4468 54.6476Z" fill="#195396"/>
<path d="M42.1233 60.5718C42.1335 60.7097 42.1974 60.7991 42.3149 60.84L43.2039 61.1006L43.2192 61.4148C42.5142 61.3994 41.9113 61.3918 41.4106 61.3918C40.9099 61.3918 40.3556 61.3994 39.7476 61.4148L39.7169 61.1006L40.4833 60.8783C40.6008 60.8374 40.6647 60.7583 40.6749 60.6407C40.6851 60.4466 40.6902 60.112 40.6902 59.6368V57.9815H37.3259V59.3379C37.3259 59.951 37.331 60.3751 37.3412 60.6101C37.3514 60.748 37.4153 60.8374 37.5328 60.8783L38.2992 61.1006L38.3145 61.4148C37.6912 61.3994 37.1317 61.3918 36.6361 61.3918C36.1303 61.3918 35.5351 61.3994 34.8505 61.4148L34.8122 61.1006L35.7012 60.84C35.8187 60.7991 35.8826 60.7199 35.8928 60.6024C35.903 60.4032 35.9081 60.0685 35.9081 59.5985V56.3951C35.9081 55.7871 35.903 55.3656 35.8928 55.1306C35.8826 54.9927 35.8187 54.9032 35.7012 54.8624L34.8122 54.6018L34.7969 54.2876C35.5019 54.3029 36.1048 54.3106 36.6055 54.3106C37.1062 54.3106 37.6605 54.3029 38.2685 54.2876L38.2992 54.6018L37.5328 54.8241C37.4153 54.8649 37.3514 54.9441 37.3412 55.0616C37.331 55.2609 37.3259 55.5955 37.3259 56.0656V57.3224H40.6902V56.3644C40.6902 55.7514 40.6851 55.3273 40.6749 55.0923C40.6647 54.9543 40.6008 54.8649 40.4833 54.8241L39.7169 54.6018L39.7016 54.2876C40.3249 54.3029 40.8844 54.3106 41.3799 54.3106C41.8857 54.3106 42.4809 54.3029 43.1656 54.2876L43.2039 54.6018L42.3149 54.8624C42.1974 54.9032 42.1335 54.9824 42.1233 55.0999C42.1131 55.2992 42.108 55.6338 42.108 56.1039V59.2996C42.108 59.9127 42.1131 60.3368 42.1233 60.5718Z" fill="#195396" stroke="#195396" stroke-width="0.5"/>
<path d="M49.9615 60.8477C49.6447 61.0622 49.2526 61.2423 48.7851 61.3879C48.3177 61.5336 47.854 61.6064 47.3942 61.6064C46.2906 61.6064 45.417 61.2832 44.7732 60.6369C44.1295 59.9906 43.8076 59.1285 43.8076 58.0504C43.8076 56.8805 44.1729 55.9314 44.9035 55.2034C45.6341 54.4754 46.5793 54.1113 47.7391 54.1113C48.4901 54.1113 49.2181 54.2646 49.9232 54.5711C49.7546 55.2558 49.6039 55.9557 49.471 56.671L49.1722 56.717L48.5514 54.8777C48.3164 54.7959 48.0507 54.7551 47.7544 54.7551C46.9931 54.7551 46.3979 55.0207 45.9688 55.5521C45.5396 56.0834 45.325 56.7859 45.325 57.6596C45.325 58.6865 45.5677 59.4452 46.0531 59.9357C46.5384 60.4262 47.3073 60.6714 48.3598 60.6714C48.8452 60.6714 49.3637 60.6229 49.9155 60.5258L49.9615 60.8477Z" fill="#195396" stroke="#195396" stroke-width="0.5"/>
<path d="M107.358 60.5563C107.363 60.6943 107.43 60.7811 107.557 60.8169L108.408 61.0851L108.431 61.4147C107.823 61.3993 107.215 61.3917 106.607 61.3917C105.999 61.3917 105.366 61.3993 104.706 61.4147L104.676 61.0851L105.618 60.8016C105.751 60.7607 105.82 60.6815 105.825 60.564C105.836 60.1502 105.841 59.6418 105.841 59.0389V52.8237C105.841 52.3128 105.836 51.8888 105.825 51.5516C105.82 51.4187 105.759 51.3319 105.641 51.291L104.691 50.9921L104.676 50.6626C105.335 50.683 105.968 50.6933 106.576 50.6933H113.374C113.982 50.6933 114.605 50.683 115.244 50.6626L115.275 50.9921L114.309 51.291C114.191 51.3319 114.13 51.4187 114.125 51.5516C114.115 51.8888 114.11 52.3128 114.11 52.8237V59.0389C114.11 59.6418 114.115 60.1502 114.125 60.564C114.13 60.6815 114.199 60.7607 114.332 60.8016L115.259 61.0851L115.275 61.4147C114.6 61.3993 113.956 61.3917 113.343 61.3917C112.735 61.3917 112.14 61.3993 111.558 61.4147L111.527 61.0851L112.393 60.8169C112.521 60.7811 112.587 60.6943 112.592 60.5563C112.608 60.1476 112.615 59.6418 112.615 59.0389V51.3906H107.343V59.0389C107.343 59.6418 107.348 60.1476 107.358 60.5563Z" fill="#195396" stroke="#195396" stroke-width="0.5"/>
<path fill-rule="evenodd" clip-rule="evenodd" d="M115.341 54.6478L115.379 54.9083L116.398 55.1996C116.419 55.7973 116.429 57.2279 116.429 59.4912V62.6103C116.429 63.3664 116.424 63.931 116.414 64.304C116.409 64.4266 116.345 64.5058 116.222 64.5415L115.341 64.8021L115.371 65.1163C116.056 65.101 116.649 65.0933 117.149 65.0933C117.65 65.0933 118.299 65.101 119.096 65.1163L119.073 64.8021L118.069 64.5185C117.941 64.4879 117.872 64.3959 117.862 64.2426C117.852 64.0383 117.847 63.6806 117.847 63.1697V61.4914C118.271 61.568 118.68 61.6064 119.073 61.6064C120.396 61.6064 121.418 61.2423 122.138 60.5143C122.859 59.7862 123.219 58.7964 123.219 57.5446C123.219 56.5279 122.939 55.7015 122.38 55.0655C121.82 54.4294 121.066 54.1113 120.115 54.1113C119.385 54.1113 118.629 54.3796 117.847 54.916V54.165L117.77 54.1113C117.009 54.3055 116.199 54.4843 115.341 54.6478ZM119.134 60.9473C118.72 60.9473 118.291 60.8987 117.847 60.8017V55.3758C118.276 55.151 118.766 55.0386 119.318 55.0386C120.085 55.0386 120.672 55.2762 121.081 55.7513C121.49 56.2265 121.694 56.9315 121.694 57.8665C121.694 58.8577 121.479 59.6189 121.05 60.1503C120.621 60.6816 119.982 60.9473 119.134 60.9473Z" fill="#195396"/>
<path d="M115.379 54.9083L115.132 54.9447L115.155 55.1044L115.31 55.1487L115.379 54.9083ZM115.341 54.6478L115.294 54.4022L115.059 54.447L115.093 54.6842L115.341 54.6478ZM116.398 55.1996L116.648 55.191L116.642 55.0092L116.467 54.9592L116.398 55.1996ZM116.414 64.304L116.664 64.3144L116.664 64.3108L116.414 64.304ZM116.222 64.5415L116.152 64.3015L116.151 64.3018L116.222 64.5415ZM115.341 64.8021L115.27 64.5624L115.072 64.6209L115.092 64.8264L115.341 64.8021ZM115.371 65.1163L115.123 65.1406L115.145 65.3714L115.377 65.3662L115.371 65.1163ZM119.096 65.1163L119.091 65.3663L119.365 65.3715L119.345 65.0981L119.096 65.1163ZM119.073 64.8021L119.322 64.7838L119.31 64.6091L119.141 64.5615L119.073 64.8021ZM118.069 64.5185L118.137 64.2778L118.127 64.2754L118.069 64.5185ZM117.862 64.2426L117.612 64.2551L117.613 64.2593L117.862 64.2426ZM117.847 61.4914L117.891 61.2454L117.597 61.1922V61.4914H117.847ZM117.847 54.916H117.597V55.3908L117.988 55.1221L117.847 54.916ZM117.847 54.165H118.097V54.0348L117.99 53.9602L117.847 54.165ZM117.77 54.1113L117.914 53.9065L117.82 53.8407L117.708 53.8691L117.77 54.1113ZM117.847 60.8017H117.597V61.003L117.793 61.0459L117.847 60.8017ZM117.847 55.3758L117.731 55.1544L117.597 55.2246V55.3758H117.847ZM121.081 55.7513L121.27 55.5883V55.5883L121.081 55.7513ZM121.05 60.1503L120.856 59.9932V59.9932L121.05 60.1503ZM115.626 54.872L115.588 54.6114L115.093 54.6842L115.132 54.9447L115.626 54.872ZM116.467 54.9592L115.448 54.668L115.31 55.1487L116.33 55.4399L116.467 54.9592ZM116.679 59.4912C116.679 57.2293 116.669 55.794 116.648 55.191L116.149 55.2081C116.169 55.8007 116.179 57.2264 116.179 59.4912H116.679ZM116.679 62.6103V59.4912H116.179V62.6103H116.679ZM116.664 64.3108C116.674 63.9343 116.679 63.3669 116.679 62.6103H116.179C116.179 63.366 116.174 63.9277 116.164 64.2971L116.664 64.3108ZM116.292 64.7815C116.39 64.753 116.485 64.7007 116.557 64.6123C116.629 64.523 116.659 64.4179 116.664 64.3144L116.164 64.2935C116.164 64.3037 116.162 64.3075 116.162 64.3069C116.163 64.3059 116.164 64.3024 116.167 64.2984C116.171 64.2944 116.173 64.2931 116.172 64.2937C116.171 64.2946 116.165 64.2979 116.152 64.3015L116.292 64.7815ZM115.412 65.0418L116.293 64.7813L116.151 64.3018L115.27 64.5624L115.412 65.0418ZM115.62 65.092L115.59 64.7778L115.092 64.8264L115.123 65.1406L115.62 65.092ZM117.149 64.8433C116.646 64.8433 116.052 64.851 115.366 64.8664L115.377 65.3662C116.06 65.3509 116.651 65.3433 117.149 65.3433V64.8433ZM119.101 64.8663C118.303 64.851 117.652 64.8433 117.149 64.8433V65.3433C117.648 65.3433 118.295 65.3509 119.091 65.3663L119.101 64.8663ZM118.824 64.8203L118.847 65.1345L119.345 65.0981L119.322 64.7838L118.824 64.8203ZM118.001 64.7591L119.005 65.0427L119.141 64.5615L118.137 64.2779L118.001 64.7591ZM117.613 64.2593C117.62 64.3683 117.65 64.4808 117.722 64.5766C117.796 64.6757 117.899 64.7348 118.011 64.7616L118.127 64.2754C118.118 64.2732 118.116 64.2712 118.117 64.2719C118.118 64.2728 118.12 64.2746 118.122 64.2766C118.124 64.2803 118.115 64.2702 118.112 64.226L117.613 64.2593ZM117.597 63.1697C117.597 63.6805 117.602 64.0438 117.612 64.2551L118.112 64.2302C118.102 64.0328 118.097 63.6808 118.097 63.1697H117.597ZM117.597 61.4914V63.1697H118.097V61.4914H117.597ZM119.073 61.3564C118.696 61.3564 118.302 61.3196 117.891 61.2454L117.802 61.7374C118.24 61.8165 118.663 61.8564 119.073 61.8564V61.3564ZM121.961 60.3385C121.3 61.0063 120.35 61.3564 119.073 61.3564V61.8564C120.443 61.8564 121.536 61.4784 122.316 60.6901L121.961 60.3385ZM122.969 57.5446C122.969 58.7461 122.625 59.6672 121.961 60.3385L122.316 60.6901C123.093 59.9053 123.469 58.8467 123.469 57.5446H122.969ZM122.192 55.2306C122.704 55.8122 122.969 56.5759 122.969 57.5446H123.469C123.469 56.4799 123.175 55.5908 122.568 54.9003L122.192 55.2306ZM120.115 54.3613C121.003 54.3613 121.686 54.6554 122.192 55.2306L122.568 54.9003C121.955 54.2034 121.128 53.8613 120.115 53.8613V54.3613ZM117.988 55.1221C118.741 54.6058 119.448 54.3613 120.115 54.3613V53.8613C119.321 53.8613 118.516 54.1533 117.705 54.7099L117.988 55.1221ZM117.597 54.165V54.916H118.097V54.165H117.597ZM117.627 54.3161L117.703 54.3698L117.99 53.9602L117.914 53.9065L117.627 54.3161ZM115.388 54.8934C116.25 54.729 117.065 54.5491 117.832 54.3536L117.708 53.8691C116.953 54.0618 116.148 54.2396 115.294 54.4022L115.388 54.8934ZM117.793 61.0459C118.254 61.1464 118.701 61.1973 119.134 61.1973V60.6973C118.74 60.6973 118.329 60.6511 117.9 60.5574L117.793 61.0459ZM117.597 55.3758V60.8017H118.097V55.3758H117.597ZM119.318 54.7886C118.732 54.7886 118.2 54.9084 117.731 55.1544L117.963 55.5973C118.351 55.3937 118.801 55.2886 119.318 55.2886V54.7886ZM121.27 55.5883C120.804 55.0458 120.14 54.7886 119.318 54.7886V55.2886C120.029 55.2886 120.541 55.5066 120.891 55.9144L121.27 55.5883ZM121.944 57.8665C121.944 56.9002 121.733 56.1266 121.27 55.5883L120.891 55.9144C121.246 56.3264 121.444 56.9629 121.444 57.8665H121.944ZM121.245 60.3074C121.723 59.7153 121.944 58.8898 121.944 57.8665H121.444C121.444 58.8256 121.236 59.5225 120.856 59.9932L121.245 60.3074ZM119.134 61.1973C120.038 61.1973 120.757 60.9114 121.245 60.3074L120.856 59.9932C120.485 60.4518 119.927 60.6973 119.134 60.6973V61.1973Z" fill="#195396"/>
<path d="M130.964 57.7056C130.964 58.8704 130.613 59.8118 129.91 60.5296C129.208 61.2474 128.315 61.6064 127.232 61.6064C126.174 61.6064 125.32 61.2679 124.669 60.5909C124.017 59.914 123.691 59.0288 123.691 57.9355C123.691 56.8115 124.032 55.8931 124.715 55.1804C125.397 54.4677 126.3 54.1113 127.424 54.1113C128.486 54.1113 129.342 54.4396 129.991 55.0961C130.64 55.7526 130.964 56.6224 130.964 57.7056Z" fill="#195396"/>
<path d="M130.714 57.7056C130.714 58.8163 130.381 59.6911 129.732 60.3548L130.089 60.7045C130.845 59.9325 131.214 58.9246 131.214 57.7056H130.714ZM129.732 60.3548C129.08 61.0205 128.254 61.3564 127.232 61.3564V61.8564C128.377 61.8564 129.336 61.4744 130.089 60.7045L129.732 60.3548ZM127.232 61.3564C126.233 61.3564 125.447 61.0392 124.849 60.4176L124.488 60.7643C125.193 61.4966 126.116 61.8564 127.232 61.8564V61.3564ZM124.849 60.4176C124.249 59.7948 123.941 58.9756 123.941 57.9355H123.441C123.441 59.0821 123.785 60.0331 124.488 60.7643L124.849 60.4176ZM123.941 57.9355C123.941 56.8662 124.264 56.0129 124.895 55.3533L124.534 55.0076C123.801 55.7734 123.441 56.7568 123.441 57.9355H123.941ZM124.895 55.3533C125.523 54.6969 126.357 54.3613 127.424 54.3613V53.8613C126.242 53.8613 125.27 54.2385 124.534 55.0076L124.895 55.3533ZM127.424 54.3613C128.43 54.3613 129.218 54.6701 129.813 55.2718L130.169 54.9204C129.466 54.2091 128.542 53.8613 127.424 53.8613V54.3613ZM129.813 55.2718C130.408 55.8735 130.714 56.676 130.714 57.7056H131.214C131.214 56.5689 130.872 55.6317 130.169 54.9204L129.813 55.2718Z" fill="#195396"/>
<path d="M125.247 57.7746C125.247 58.73 125.426 59.5078 125.784 60.1082C126.141 60.7085 126.673 61.0086 127.378 61.0086C128.037 61.0086 128.539 60.7442 128.883 60.2155C129.228 59.6867 129.401 58.9037 129.401 57.8665C129.401 56.8907 129.219 56.1218 128.857 55.5598C128.494 54.9978 127.968 54.7168 127.278 54.7168C126.624 54.7168 126.122 54.9697 125.772 55.4755C125.422 55.9813 125.247 56.7477 125.247 57.7746Z" fill="white" stroke="#195396" stroke-width="0.5"/>
<path d="M138.548 59.6368V55.5291L135.935 61.4148L135.605 61.4531L133.038 55.6824V59.3379C133.038 59.951 133.043 60.3751 133.053 60.6101C133.064 60.748 133.127 60.8374 133.245 60.8783L134.011 61.1006L134.027 61.4148C133.403 61.3994 132.961 61.3918 132.701 61.3918C132.435 61.3918 131.96 61.3994 131.275 61.4148L131.245 61.1006L132.126 60.84C132.243 60.7991 132.307 60.7199 132.318 60.6024C132.328 60.4032 132.333 60.0685 132.333 59.5985V56.3951C132.333 55.7871 132.328 55.3656 132.318 55.1306C132.307 54.9927 132.243 54.9032 132.126 54.8624L131.245 54.6018L131.222 54.2876C131.927 54.3029 132.42 54.3106 132.701 54.3106C133.079 54.3106 133.475 54.3055 133.889 54.2953L136.126 59.3916L138.372 54.2953C138.735 54.3055 139.056 54.3106 139.337 54.3106C139.731 54.3106 140.27 54.3029 140.954 54.2876L140.985 54.6018L140.104 54.8624C139.986 54.9032 139.92 54.9824 139.905 55.0999C139.894 55.2992 139.889 55.6338 139.889 56.1039V59.2996C139.889 59.9127 139.894 60.3368 139.905 60.5718C139.92 60.7097 139.986 60.7991 140.104 60.84L140.985 61.1006L141 61.4148C140.301 61.3994 139.7 61.3918 139.2 61.3918C138.745 61.3918 138.213 61.3994 137.605 61.4148L137.575 61.1006L138.341 60.8783C138.459 60.8374 138.523 60.7583 138.533 60.6407C138.543 60.4466 138.548 60.112 138.548 59.6368Z" fill="#195396" stroke="#195396" stroke-width="0.5"/>
<path d="M52.6445 51.3908L52.1387 53.3067L51.8322 53.3527L51.3647 50.931L51.4107 50.8774C52.6113 50.6066 53.6996 50.4712 54.6754 50.4712C56.5453 50.4712 57.9465 50.8684 58.8789 51.6629C59.8113 52.4573 60.2775 53.7972 60.2775 55.6825C60.2775 57.583 59.7641 59.0442 58.7371 60.0661C57.7102 61.0879 56.2822 61.5988 54.4532 61.5988C53.4262 61.5988 52.3865 61.4378 51.3341 61.116L51.2881 61.0623L51.6789 58.4184L52.0238 58.3571L52.5756 60.6102C53.1989 60.835 53.8477 60.9474 54.5221 60.9474C55.8658 60.9474 56.8749 60.5872 57.5493 59.8668C58.2237 59.1464 58.5788 57.933 58.6145 56.2266H53.4799V55.5062H58.5915C58.5149 53.9326 58.1317 52.8035 57.442 52.1189C56.7523 51.4343 55.7458 51.0919 54.4225 51.0919C53.8503 51.0919 53.2576 51.1916 52.6445 51.3908Z" fill="#FF0413" stroke="#FF0413" stroke-width="0.5"/>
<path d="M69.0999 60.5718C69.1101 60.7097 69.1739 60.7991 69.2915 60.84L70.1804 61.1006L70.1958 61.4148C69.4907 61.3994 68.8878 61.3918 68.3871 61.3918C67.8865 61.3918 67.3321 61.3994 66.7241 61.4148L66.6935 61.1006L67.4599 60.8783C67.5774 60.8374 67.6412 60.7583 67.6514 60.6407C67.6617 60.4466 67.6668 60.112 67.6668 59.6368V57.9815H64.3024V59.3379C64.3024 59.951 64.3075 60.3751 64.3178 60.6101C64.328 60.748 64.3918 60.8374 64.5094 60.8783L65.2757 61.1006L65.291 61.4148C64.6677 61.3994 64.1083 61.3918 63.6127 61.3918C63.1069 61.3918 62.5117 61.3994 61.8271 61.4148L61.7888 61.1006L62.6777 60.84C62.7953 60.7991 62.8591 60.7199 62.8693 60.6024C62.8796 60.4032 62.8847 60.0685 62.8847 59.5985V56.3951C62.8847 55.7871 62.8796 55.3656 62.8693 55.1306C62.8591 54.9927 62.7953 54.9032 62.6777 54.8624L61.7888 54.6018L61.7734 54.2876C62.4785 54.3029 63.0814 54.3106 63.5821 54.3106C64.0827 54.3106 64.6371 54.3029 65.2451 54.2876L65.2757 54.6018L64.5094 54.8241C64.3918 54.8649 64.328 54.9441 64.3178 55.0616C64.3075 55.2609 64.3024 55.5955 64.3024 56.0656V57.3224H67.6668V56.3644C67.6668 55.7514 67.6617 55.3273 67.6514 55.0923C67.6412 54.9543 67.5774 54.8649 67.4599 54.8241L66.6935 54.6018L66.6782 54.2876C67.3015 54.3029 67.8609 54.3106 68.3565 54.3106C68.8623 54.3106 69.4575 54.3029 70.1421 54.2876L70.1804 54.6018L69.2915 54.8624C69.1739 54.9032 69.1101 54.9824 69.0999 55.0999C69.0896 55.2992 69.0845 55.6338 69.0845 56.1039V59.2996C69.0845 59.9127 69.0896 60.3368 69.0999 60.5718Z" fill="#FF0413" stroke="#FF0413" stroke-width="0.5"/>
<path fill-rule="evenodd" clip-rule="evenodd" d="M76.504 61.4301C76.9638 61.3126 77.4108 61.1184 77.8451 60.8477L77.7991 60.5181C77.2422 60.6101 76.7186 60.6561 76.2281 60.6561C75.1296 60.6561 74.3224 60.4198 73.8064 59.9472C73.2904 59.4746 73.0323 58.6891 73.0323 57.5906H77.8911C77.9064 57.4425 77.9141 57.2968 77.9141 57.1538C77.9141 56.2035 77.6637 55.4588 77.163 54.9198C76.6624 54.3808 75.9624 54.1113 75.0632 54.1113C73.9903 54.1113 73.1332 54.4715 72.4921 55.1919C71.8509 55.9123 71.5303 56.8396 71.5303 57.9738C71.5303 59.1131 71.8649 60.0034 72.5342 60.6446C73.2035 61.2858 74.1001 61.6064 75.2241 61.6064C75.6175 61.6064 76.0442 61.5476 76.504 61.4301ZM76.389 56.7246V56.9545H73.063C73.1039 56.3312 73.2852 55.7999 73.6071 55.3605C73.929 54.9211 74.3939 54.7014 75.0019 54.7014C75.4617 54.7014 75.8079 54.8573 76.0403 55.1689C76.2728 55.4806 76.389 55.9991 76.389 56.7246Z" fill="#FF0413"/>
<path d="M77.8451 60.8477L77.9774 61.0598L78.1151 60.9739L78.0927 60.8131L77.8451 60.8477ZM77.7991 60.5181L78.0467 60.4836L78.0113 60.2297L77.7584 60.2715L77.7991 60.5181ZM73.0323 57.5906V57.3406H72.7823V57.5906H73.0323ZM77.8911 57.5906V57.8406H78.1166L78.1398 57.6163L77.8911 57.5906ZM72.4921 55.1919L72.6788 55.3581L72.4921 55.1919ZM76.389 56.9545V57.2045H76.639V56.9545H76.389ZM73.063 56.9545L72.8135 56.9382L72.7961 57.2045H73.063V56.9545ZM73.6071 55.3605L73.8088 55.5082L73.8088 55.5082L73.6071 55.3605ZM76.0403 55.1689L75.8399 55.3184V55.3184L76.0403 55.1689ZM77.7128 60.6355C77.2986 60.8938 76.8752 61.0772 76.4421 61.1879L76.5659 61.6723C77.0524 61.548 77.523 61.3431 77.9774 61.0598L77.7128 60.6355ZM77.5515 60.5527L77.5975 60.8822L78.0927 60.8131L78.0467 60.4836L77.5515 60.5527ZM76.2281 60.9061C76.7341 60.9061 77.2715 60.8586 77.8399 60.7648L77.7584 60.2715C77.213 60.3615 76.703 60.4061 76.2281 60.4061V60.9061ZM73.6375 60.1315C74.2198 60.6648 75.1012 60.9061 76.2281 60.9061V60.4061C75.158 60.4061 74.425 60.1747 73.9752 59.7628L73.6375 60.1315ZM72.7823 57.5906C72.7823 58.7199 73.0466 59.5903 73.6375 60.1315L73.9752 59.7628C73.5341 59.3588 73.2823 58.6582 73.2823 57.5906H72.7823ZM77.8911 57.3406H73.0323V57.8406H77.8911V57.3406ZM77.6641 57.1538C77.6641 57.2879 77.6569 57.4249 77.6424 57.5649L78.1398 57.6163C78.1559 57.46 78.1641 57.3058 78.1641 57.1538H77.6641ZM76.9799 55.09C77.4262 55.5705 77.6641 56.2476 77.6641 57.1538H78.1641C78.1641 56.1594 77.9013 55.3472 77.3462 54.7497L76.9799 55.09ZM75.0632 54.3613C75.9095 54.3613 76.5367 54.6129 76.9799 55.09L77.3462 54.7497C76.788 54.1487 76.0153 53.8613 75.0632 53.8613V54.3613ZM72.6788 55.3581C73.2669 54.6974 74.0527 54.3613 75.0632 54.3613V53.8613C73.9279 53.8613 72.9996 54.2457 72.3053 55.0257L72.6788 55.3581ZM71.7803 57.9738C71.7803 56.8894 72.0854 56.0248 72.6788 55.3581L72.3053 55.0257C71.6164 55.7997 71.2803 56.7897 71.2803 57.9738H71.7803ZM72.7072 60.464C72.098 59.8804 71.7803 59.0617 71.7803 57.9738H71.2803C71.2803 59.1646 71.6319 60.1263 72.3613 60.8251L72.7072 60.464ZM75.2241 61.3564C74.1501 61.3564 73.3204 61.0515 72.7072 60.464L72.3613 60.8251C73.0866 61.52 74.0502 61.8564 75.2241 61.8564V61.3564ZM76.4421 61.1879C75.9985 61.3012 75.5929 61.3564 75.2241 61.3564V61.8564C75.6422 61.8564 76.0898 61.794 76.5659 61.6723L76.4421 61.1879ZM76.639 56.9545V56.7246H76.139V56.9545H76.639ZM73.063 57.2045H76.389V56.7045H73.063V57.2045ZM73.4054 55.2128C73.0515 55.6959 72.8571 56.2746 72.8135 56.9382L73.3125 56.9709C73.3507 56.3879 73.519 55.9039 73.8088 55.5082L73.4054 55.2128ZM75.0019 54.4514C74.3249 54.4514 73.7804 54.7009 73.4054 55.2128L73.8088 55.5082C74.0776 55.1413 74.4629 54.9514 75.0019 54.9514V54.4514ZM76.2407 55.0194C75.9521 54.6325 75.5243 54.4514 75.0019 54.4514V54.9514C75.3991 54.9514 75.6636 55.082 75.8399 55.3184L76.2407 55.0194ZM76.639 56.7246C76.639 55.9856 76.5232 55.3981 76.2407 55.0194L75.8399 55.3184C76.0224 55.563 76.139 56.0127 76.139 56.7246H76.639Z" fill="#FF0413"/>
<path fill-rule="evenodd" clip-rule="evenodd" d="M79.0186 54.6478L79.0569 54.9083L80.0761 55.1996C80.0966 55.7973 80.1068 57.2279 80.1068 59.4912V62.6103C80.1068 63.3664 80.1017 63.931 80.0915 64.304C80.0864 64.4266 80.0225 64.5058 79.8999 64.5415L79.0186 64.8021L79.0492 65.1163C79.7338 65.101 80.3265 65.0933 80.8272 65.0933C81.3279 65.0933 81.9767 65.101 82.7737 65.1163L82.7507 64.8021L81.7468 64.5185C81.6191 64.4879 81.5501 64.3959 81.5399 64.2426C81.5297 64.0383 81.5246 63.6806 81.5246 63.1697V61.4914C81.9486 61.568 82.3573 61.6064 82.7507 61.6064C84.074 61.6064 85.0958 61.2423 85.8162 60.5143C86.5366 59.7862 86.8968 58.7964 86.8968 57.5446C86.8968 56.5279 86.617 55.7015 86.0576 55.0655C85.4982 54.4294 84.7433 54.1113 83.793 54.1113C83.0624 54.1113 82.3063 54.3796 81.5246 54.916V54.165L81.4479 54.1113C80.6867 54.3055 79.8769 54.4843 79.0186 54.6478ZM82.8121 60.9473C82.3982 60.9473 81.9691 60.8987 81.5246 60.8017V55.3758C81.9537 55.151 82.4442 55.0386 82.996 55.0386C83.7623 55.0386 84.3499 55.2762 84.7586 55.7513C85.1673 56.2265 85.3717 56.9315 85.3717 57.8665C85.3717 58.8577 85.1571 59.6189 84.728 60.1503C84.2988 60.6816 83.6602 60.9473 82.8121 60.9473Z" fill="#FF0413"/>
<path d="M79.0569 54.9083L78.8095 54.9447L78.833 55.1044L78.9882 55.1487L79.0569 54.9083ZM79.0186 54.6478L78.9718 54.4022L78.7363 54.447L78.7712 54.6842L79.0186 54.6478ZM80.0761 55.1996L80.326 55.191L80.3198 55.0092L80.1448 54.9592L80.0761 55.1996ZM80.0915 64.304L80.3413 64.3144L80.3414 64.3108L80.0915 64.304ZM79.8999 64.5415L79.8299 64.3015L79.829 64.3018L79.8999 64.5415ZM79.0186 64.8021L78.9477 64.5624L78.7497 64.6209L78.7697 64.8264L79.0186 64.8021ZM79.0492 65.1163L78.8004 65.1406L78.8229 65.3714L79.0548 65.3662L79.0492 65.1163ZM82.7737 65.1163L82.7689 65.3663L83.0431 65.3715L83.0231 65.0981L82.7737 65.1163ZM82.7507 64.8021L83.0001 64.7838L82.9873 64.6091L82.8187 64.5615L82.7507 64.8021ZM81.7468 64.5185L81.8148 64.2778L81.8052 64.2754L81.7468 64.5185ZM81.5399 64.2426L81.2902 64.2551L81.2904 64.2593L81.5399 64.2426ZM81.5246 61.4914L81.569 61.2454L81.2746 61.1922V61.4914H81.5246ZM81.5246 54.916H81.2746V55.3908L81.666 55.1221L81.5246 54.916ZM81.5246 54.165H81.7746V54.0348L81.6679 53.9602L81.5246 54.165ZM81.4479 54.1113L81.5913 53.9065L81.4973 53.8407L81.3861 53.8691L81.4479 54.1113ZM81.5246 60.8017H81.2746V61.003L81.4712 61.0459L81.5246 60.8017ZM81.5246 55.3758L81.4086 55.1544L81.2746 55.2246V55.3758H81.5246ZM84.7586 55.7513L84.9481 55.5883V55.5883L84.7586 55.7513ZM84.728 60.1503L84.5335 59.9932V59.9932L84.728 60.1503ZM79.3042 54.872L79.2659 54.6114L78.7712 54.6842L78.8095 54.9447L79.3042 54.872ZM80.1448 54.9592L79.1256 54.668L78.9882 55.1487L80.0075 55.4399L80.1448 54.9592ZM80.3568 59.4912C80.3568 57.2293 80.3466 55.794 80.326 55.191L79.8263 55.2081C79.8465 55.8007 79.8568 57.2264 79.8568 59.4912H80.3568ZM80.3568 62.6103V59.4912H79.8568V62.6103H80.3568ZM80.3414 64.3108C80.3517 63.9343 80.3568 63.3669 80.3568 62.6103H79.8568C79.8568 63.366 79.8517 63.9277 79.8416 64.2971L80.3414 64.3108ZM79.9699 64.7815C80.0676 64.753 80.163 64.7007 80.2343 64.6123C80.3064 64.523 80.3369 64.4179 80.3412 64.3144L79.8417 64.2935C79.8413 64.3037 79.8398 64.3075 79.84 64.3069C79.8404 64.3059 79.8419 64.3024 79.8451 64.2984C79.8483 64.2944 79.8506 64.2931 79.8496 64.2937C79.8483 64.2946 79.8425 64.2979 79.8299 64.3015L79.9699 64.7815ZM79.0894 65.0418L79.9708 64.7813L79.829 64.3018L78.9477 64.5624L79.0894 65.0418ZM79.298 65.092L79.2674 64.7778L78.7697 64.8264L78.8004 65.1406L79.298 65.092ZM80.8272 64.8433C80.3241 64.8433 79.7295 64.851 79.0436 64.8664L79.0548 65.3662C79.7382 65.3509 80.3289 65.3433 80.8272 65.3433V64.8433ZM82.7785 64.8663C81.9807 64.851 81.3301 64.8433 80.8272 64.8433V65.3433C81.3256 65.3433 81.9727 65.3509 82.7689 65.3663L82.7785 64.8663ZM82.5014 64.8203L82.5244 65.1345L83.0231 65.0981L83.0001 64.7838L82.5014 64.8203ZM81.6789 64.7591L82.6828 65.0427L82.8187 64.5615L81.8148 64.2779L81.6789 64.7591ZM81.2904 64.2593C81.2977 64.3683 81.3275 64.4808 81.3993 64.5766C81.4736 64.6757 81.5765 64.7348 81.6885 64.7616L81.8052 64.2754C81.7959 64.2732 81.7932 64.2712 81.7943 64.2719C81.7957 64.2728 81.7978 64.2746 81.7993 64.2766C81.8021 64.2803 81.7923 64.2702 81.7893 64.226L81.2904 64.2593ZM81.2746 63.1697C81.2746 63.6805 81.2796 64.0438 81.2902 64.2551L81.7896 64.2302C81.7797 64.0328 81.7746 63.6808 81.7746 63.1697H81.2746ZM81.2746 61.4914V63.1697H81.7746V61.4914H81.2746ZM82.7507 61.3564C82.3736 61.3564 81.9798 61.3196 81.569 61.2454L81.4801 61.7374C81.9175 61.8165 82.3411 61.8564 82.7507 61.8564V61.3564ZM85.6385 60.3385C84.9777 61.0063 84.0276 61.3564 82.7507 61.3564V61.8564C84.1204 61.8564 85.2139 61.4784 85.9939 60.6901L85.6385 60.3385ZM86.6468 57.5446C86.6468 58.7461 86.3027 59.6672 85.6385 60.3385L85.9939 60.6901C86.7705 59.9053 87.1468 58.8467 87.1468 57.5446H86.6468ZM85.8699 55.2306C86.3815 55.8122 86.6468 56.5759 86.6468 57.5446H87.1468C87.1468 56.4799 86.8526 55.5908 86.2453 54.9003L85.8699 55.2306ZM83.793 54.3613C84.6812 54.3613 85.364 54.6554 85.8699 55.2306L86.2453 54.9003C85.6323 54.2034 84.8054 53.8613 83.793 53.8613V54.3613ZM81.666 55.1221C82.4184 54.6058 83.126 54.3613 83.793 54.3613V53.8613C82.9988 53.8613 82.1941 54.1533 81.3831 54.7099L81.666 55.1221ZM81.2746 54.165V54.916H81.7746V54.165H81.2746ZM81.3046 54.3161L81.3812 54.3698L81.6679 53.9602L81.5913 53.9065L81.3046 54.3161ZM79.0653 54.8934C79.9281 54.729 80.743 54.5491 81.5097 54.3536L81.3861 53.8691C80.6304 54.0618 79.8256 54.2396 78.9718 54.4022L79.0653 54.8934ZM81.4712 61.0459C81.9315 61.1464 82.3786 61.1973 82.8121 61.1973V60.6973C82.4178 60.6973 82.0066 60.6511 81.5779 60.5574L81.4712 61.0459ZM81.2746 55.3758V60.8017H81.7746V55.3758H81.2746ZM82.996 54.7886C82.4095 54.7886 81.8782 54.9084 81.4086 55.1544L81.6406 55.5973C82.0292 55.3937 82.4789 55.2886 82.996 55.2886V54.7886ZM84.9481 55.5883C84.4815 55.0458 83.8175 54.7886 82.996 54.7886V55.2886C83.7072 55.2886 84.2183 55.5066 84.5691 55.9144L84.9481 55.5883ZM85.6217 57.8665C85.6217 56.9002 85.4111 56.1266 84.9481 55.5883L84.5691 55.9144C84.9235 56.3264 85.1217 56.9629 85.1217 57.8665H85.6217ZM84.9224 60.3074C85.4006 59.7153 85.6217 58.8898 85.6217 57.8665H85.1217C85.1217 58.8256 84.9136 59.5225 84.5335 59.9932L84.9224 60.3074ZM82.8121 61.1973C83.7157 61.1973 84.4345 60.9114 84.9224 60.3074L84.5335 59.9932C84.1631 60.4518 83.6047 60.6973 82.8121 60.6973V61.1973Z" fill="#FF0413"/>
<path d="M90.7751 59.2996C90.7751 59.9127 90.7802 60.3368 90.7904 60.5718C90.8006 60.7097 90.8645 60.7991 90.982 60.84L91.871 61.1006L91.8863 61.4148C91.1813 61.3994 90.5809 61.3918 90.0854 61.3918C89.5796 61.3918 88.9844 61.3994 88.2997 61.4148L88.2614 61.1006L89.1504 60.84C89.2679 60.7991 89.3318 60.7199 89.342 60.6024C89.3522 60.4032 89.3573 60.0685 89.3573 59.5985V56.4028C89.3573 55.7897 89.3522 55.3656 89.342 55.1306C89.3318 54.9927 89.2679 54.9032 89.1504 54.8624L88.2614 54.6018L88.2461 54.2876C88.9511 54.3029 89.554 54.3106 90.0547 54.3106H91.4572C92.3359 54.3106 93.2785 54.3029 94.285 54.2876L94.331 54.3412L93.8405 56.7093L93.534 56.7553L93.0205 54.985H90.7751V59.2996Z" fill="#FF0413" stroke="#FF0413" stroke-width="0.5"/>
<path fill-rule="evenodd" clip-rule="evenodd" d="M101.463 60.5296C102.166 59.8118 102.517 58.8704 102.517 57.7056C102.517 56.6224 102.192 55.7526 101.544 55.0961C100.895 54.4396 100.039 54.1113 98.9763 54.1113C97.8523 54.1113 96.9493 54.4677 96.2672 55.1804C95.5852 55.8931 95.2441 56.8115 95.2441 57.9355C95.2441 59.0288 95.5698 59.914 96.2213 60.5909C96.8727 61.2679 97.7272 61.6064 98.7847 61.6064C99.8679 61.6064 100.761 61.2474 101.463 60.5296ZM97.3363 60.1081C96.9787 59.5078 96.7999 58.7299 96.7999 57.7745C96.7999 56.7476 96.9748 55.9813 97.3248 55.4755C97.6748 54.9697 98.1768 54.7168 98.8307 54.7168C99.5204 54.7168 100.047 54.9978 100.409 55.5598C100.772 56.1218 100.954 56.8907 100.954 57.8665C100.954 58.9037 100.781 59.6866 100.436 60.2154C100.091 60.7442 99.5894 61.0086 98.9303 61.0086C98.2253 61.0086 97.6939 60.7084 97.3363 60.1081Z" fill="#FF0413"/>
<path d="M101.544 55.0961L101.366 55.2718L101.544 55.0961ZM96.2672 55.1804L96.4479 55.3533L96.2672 55.1804ZM97.3363 60.1081L97.5511 59.9802L97.3363 60.1081ZM97.3248 55.4755L97.5304 55.6177V55.6177L97.3248 55.4755ZM100.409 55.5598L100.619 55.4242V55.4242L100.409 55.5598ZM102.267 57.7056C102.267 58.8163 101.934 59.6911 101.285 60.3548L101.642 60.7045C102.397 59.9325 102.767 58.9246 102.767 57.7056H102.267ZM101.366 55.2718C101.96 55.8735 102.267 56.676 102.267 57.7056H102.767C102.767 56.5689 102.425 55.6317 101.721 54.9204L101.366 55.2718ZM98.9763 54.3613C99.9832 54.3613 100.771 54.6701 101.366 55.2718L101.721 54.9204C101.018 54.2091 100.095 53.8613 98.9763 53.8613V54.3613ZM96.4479 55.3533C97.076 54.6969 97.9101 54.3613 98.9763 54.3613V53.8613C97.7945 53.8613 96.8226 54.2385 96.0866 55.0076L96.4479 55.3533ZM95.4941 57.9355C95.4941 56.8662 95.8166 56.0129 96.4479 55.3533L96.0866 55.0076C95.3537 55.7734 94.9941 56.7568 94.9941 57.9355H95.4941ZM96.4014 60.4176C95.8021 59.7948 95.4941 58.9756 95.4941 57.9355H94.9941C94.9941 59.0821 95.3376 60.0331 96.0411 60.7643L96.4014 60.4176ZM98.7847 61.3564C97.7857 61.3564 96.9995 61.0392 96.4014 60.4176L96.0411 60.7643C96.7458 61.4966 97.6686 61.8564 98.7847 61.8564V61.3564ZM101.285 60.3548C100.633 61.0205 99.8065 61.3564 98.7847 61.3564V61.8564C99.9293 61.8564 100.888 61.4744 101.642 60.7045L101.285 60.3548ZM96.5499 57.7745C96.5499 58.7591 96.7339 59.5854 97.1215 60.2361L97.5511 59.9802C97.2235 59.4302 97.0499 58.7008 97.0499 57.7745H96.5499ZM97.1192 55.3332C96.7268 55.9004 96.5499 56.7275 96.5499 57.7745H97.0499C97.0499 56.7678 97.2229 56.0621 97.5304 55.6177L97.1192 55.3332ZM98.8307 54.4668C98.1008 54.4668 97.5193 54.755 97.1192 55.3332L97.5304 55.6177C97.8303 55.1843 98.2527 54.9668 98.8307 54.9668V54.4668ZM100.619 55.4242C100.209 54.7882 99.6022 54.4668 98.8307 54.4668V54.9668C99.4387 54.9668 99.8844 55.2073 100.199 55.6953L100.619 55.4242ZM101.204 57.8665C101.204 56.8634 101.018 56.0411 100.619 55.4242L100.199 55.6953C100.527 56.2024 100.704 56.9179 100.704 57.8665H101.204ZM100.646 60.352C101.029 59.7641 101.204 58.924 101.204 57.8665H100.704C100.704 58.8833 100.533 59.6091 100.227 60.0788L100.646 60.352ZM98.9303 61.2586C99.6694 61.2586 100.252 60.9552 100.646 60.352L100.227 60.0788C99.9305 60.5332 99.5094 60.7586 98.9303 60.7586V61.2586ZM97.1215 60.2361C97.5248 60.9129 98.1382 61.2586 98.9303 61.2586V60.7586C98.3124 60.7586 97.8631 60.504 97.5511 59.9802L97.1215 60.2361Z" fill="#FF0413"/>
<path d="M60.5608 0.0932617C60.9088 0.102421 61.2615 0.116161 61.6141 0.13448C63.9132 2.91904 66.6612 5.30514 69.1114 7.95688C69.3083 8.7721 68.1862 9.20719 67.7832 9.80257C61.8386 15.9854 55.7794 22.0674 49.8393 28.2548C46.8624 25.8275 44.4992 22.7361 41.6414 20.1805C41.6368 19.9882 41.6276 19.6126 41.623 19.4249C47.9936 13.0405 54.4146 6.69284 60.5608 0.0932617Z" fill="#005497"/>
<path d="M51.0439 29.6931C54.1399 26.4827 57.2726 23.3134 60.3548 20.0938C62.0081 21.0555 63.3134 22.4661 64.6141 23.8447C66.5651 25.988 68.6169 28.0398 70.6778 30.0824C67.7879 33.1372 64.7515 36.0408 61.8616 39.091C61.5639 39.4162 61.1883 39.6131 60.7441 39.6818C57.6618 36.2103 54.2682 33.0273 51.0439 29.6931Z" fill="#005497"/>
<path d="M79.5765 0.578671C79.8513 0.212283 80.4742 -0.291502 80.8864 0.212283C83.9824 3.51436 87.1928 6.70653 90.3346 9.96739C87.0967 13.3107 83.7808 16.5761 80.5658 19.9377C80.5704 19.8095 80.5795 19.5576 80.5841 19.434C77.3874 16.0586 73.925 12.9214 70.916 9.37201C73.8517 6.48669 76.7187 3.53726 79.5765 0.578671Z" fill="#FF141E"/>
<path d="M89.8351 13.1089C90.4626 12.4907 90.9847 11.6068 91.9373 11.4785C94.502 14.1852 97.0072 16.9698 99.7368 19.5162C99.7459 19.6581 99.7734 19.9467 99.7871 20.0887C93.3066 26.7524 86.7529 33.3519 80.364 40.0981C78.0053 37.286 75.2757 34.8175 72.7339 32.1749C72.4316 31.8635 71.9187 31.3414 72.3767 30.9292C78.1473 24.9433 84.0828 19.1131 89.8351 13.1089Z" fill="#FF141E"/>
<path d="M60.3545 20.0935C63.7665 16.4205 67.293 12.8344 70.9157 9.37207C73.9246 12.9215 77.387 16.0587 80.5837 19.434C80.5792 19.5577 80.57 19.8096 80.5654 19.9378L80.5563 20.1393C77.1122 23.2903 74.0895 26.8855 70.6775 30.0822C68.6166 28.0396 66.5648 25.9878 64.6138 23.8444C63.3131 22.4659 62.0078 21.0553 60.3545 20.0935Z" fill="#1E1A18"/>
</svg>
