<svg width="442" height="614" viewBox="0 0 442 614" fill="none" xmlns="http://www.w3.org/2000/svg">
<path opacity="0.03" fill-rule="evenodd" clip-rule="evenodd" d="M152.493 3.24742C146.188 -4.45929 136.662 3.24742 132.459 8.85229C88.7498 54.1117 44.9002 99.2309 0 143.369C29.0903 177.691 60.9514 209.493 92.8058 241.289C111.345 259.794 129.882 278.297 147.87 297.293C147.8 299.185 147.659 303.038 147.589 305C175.051 276.281 202.994 248.02 230.941 219.755C253.036 197.408 275.134 175.059 297 152.477C278.755 133.537 260.358 114.748 241.963 95.9605C211.912 65.2684 181.865 34.5814 152.493 3.24742ZM296.44 193.765C294.243 196.251 292.064 198.715 289.795 200.952C243.43 249.38 196.288 297.068 149.146 344.755C106.838 387.552 64.5313 430.348 22.7887 473.677C15.8339 479.941 23.5188 487.863 28.1533 492.64L28.2521 492.742C41.3204 506.338 54.7133 519.632 68.1061 532.927C94.5527 559.179 120.999 585.431 144.945 614C212.742 542.363 281.754 471.806 350.763 401.252C381.211 370.122 411.658 338.993 442 307.771C441.79 305.599 441.37 301.183 441.23 299.01C409.019 268.941 378.851 236.701 348.732 204.513C339.816 194.985 330.904 185.461 321.945 176C310.821 177.499 303.535 185.74 296.44 193.765Z" fill="white"/>
</svg>
