<svg width="19" height="19" viewBox="0 0 19 19" fill="none" xmlns="http://www.w3.org/2000/svg">
<path d="M7.50033 1.5C7.80463 1.49992 8.08479 1.66571 8.23116 1.9325L8.27366 2.02417L9.94033 6.19083C10.0782 6.53519 9.97189 6.92924 9.67949 7.1575L9.59616 7.21417L8.20116 8.05083L8.25366 8.13667C8.91762 9.19083 9.8095 10.0827 10.8637 10.7467L10.9487 10.7983L11.7862 9.405C11.9768 9.08673 12.3549 8.93284 12.7137 9.0275L12.8095 9.06L16.9762 10.7267C17.2587 10.8394 17.4574 11.0972 17.4945 11.3992L17.5003 11.5V14.8333C17.5003 16.2142 16.3812 17.3333 14.9503 17.3317C7.80116 16.8975 2.10199 11.1983 1.66699 4C1.66692 2.6762 2.69881 1.58183 4.02033 1.50417L4.16699 1.5H7.50033V1.5Z" fill="#FF141E" stroke="#195396" stroke-width="1.83333" stroke-linecap="round" stroke-linejoin="round"/>
</svg>
